<?xml version="1.0" standalone="no"?>
<!DOCTYPE svg PUBLIC "-//W3C//DTD SVG 20010904//EN"
 "http://www.w3.org/TR/2001/REC-SVG-20010904/DTD/svg10.dtd">
<svg version="1.0" xmlns="http://www.w3.org/2000/svg"
 width="1280.000000pt" height="1280.000000pt" viewBox="0 0 1280.000000 1280.000000"
 preserveAspectRatio="xMidYMid meet">
<metadata>
Created by potrace 1.15, written by Peter Selinger 2001-2017
</metadata>
<g transform="translate(0.000000,1280.000000) scale(0.100000,-0.100000)"
fill="#000000" stroke="none">
<path d="M6120 12429 c-151 -203 -279 -375 -284 -382 -6 -10 72 -122 274 -391
156 -207 287 -375 291 -374 9 3 569 745 569 754 0 5 -569 764 -573 763 -1 0
-126 -167 -277 -370z"/>
<path d="M5553 11735 l656 -750 1 -497 c0 -274 -2 -498 -5 -498 -3 0 -295 217
-648 481 -353 265 -649 487 -657 492 -8 6 283 -288 648 -654 l662 -664 0 -126
0 -126 -190 -253 c-104 -139 -190 -255 -190 -257 0 -3 146 -199 224 -302 9
-12 8 -13 -4 -6 -8 5 -267 198 -575 428 -308 231 -567 425 -575 430 -8 6 277
-283 635 -641 357 -358 647 -653 645 -655 -3 -2 -211 -77 -463 -167 l-459
-163 -57 57 -58 57 -42 307 c-23 169 -44 314 -47 322 -3 12 -73 25 -321 59
l-318 45 -253 250 -253 251 -49 739 c-27 406 -51 740 -53 742 -1 2 -11 -270
-21 -604 -10 -334 -21 -633 -25 -665 l-6 -57 -232 232 -232 233 -60 915 c-34
503 -61 934 -61 958 0 23 -4 42 -10 42 -6 0 -10 -43 -10 -107 -1 -179 -58
-1864 -64 -1870 -5 -5 -691 -29 -1546 -54 -228 -7 -418 -15 -422 -18 -4 -3
424 -34 950 -69 l957 -63 233 -232 232 -232 -52 -6 c-29 -4 -326 -15 -660 -25
-334 -10 -606 -20 -603 -22 2 -2 334 -26 737 -53 l733 -49 253 -253 253 -253
39 -275 c22 -151 42 -292 45 -315 l6 -40 312 -44 312 -44 64 -62 64 -61 -163
-459 c-90 -252 -165 -461 -167 -464 -2 -2 -297 288 -655 645 -357 358 -646
643 -642 635 5 -9 226 -305 492 -659 266 -353 481 -645 479 -647 -2 -3 -115
78 -250 180 -135 101 -251 187 -257 191 -6 4 -123 -78 -265 -184 l-255 -191
-77 0 -78 0 -664 663 c-366 364 -660 655 -654 647 5 -8 227 -304 492 -657 264
-354 481 -645 481 -648 0 -3 -224 -5 -497 -5 l-498 0 -744 651 c-409 359 -740
646 -736 639 5 -8 318 -344 696 -747 l689 -734 -678 -721 c-372 -396 -688
-734 -701 -751 -14 -16 312 265 725 626 l749 657 498 0 c273 0 497 -3 497 -6
0 -3 -215 -292 -477 -642 -263 -350 -484 -645 -492 -656 -7 -12 285 277 650
642 l664 662 78 0 77 0 253 -190 c140 -105 256 -190 259 -190 2 0 119 85 258
190 139 104 255 188 257 186 3 -2 -212 -294 -478 -648 -265 -353 -487 -650
-492 -658 -6 -8 283 277 641 635 358 357 653 647 655 645 2 -3 77 -211 167
-464 l163 -459 -69 -66 -69 -67 -302 -44 c-276 -41 -302 -46 -307 -65 -2 -11
-22 -147 -42 -302 l-38 -282 -261 -261 -261 -261 -744 -50 c-409 -27 -745 -51
-747 -52 -1 -2 266 -11 595 -21 328 -10 630 -21 670 -25 l72 -6 -232 -232
-233 -232 -940 -61 c-517 -34 -953 -65 -970 -70 -21 -6 0 -8 75 -9 203 -2
1892 -60 1897 -65 5 -5 62 -1701 63 -1868 0 -65 4 -108 10 -108 6 0 10 19 10
43 0 23 27 454 60 957 l61 915 232 233 232 232 6 -57 c4 -32 15 -331 25 -665
10 -334 19 -606 21 -604 2 2 26 336 53 742 l49 738 243 243 243 242 328 50
c181 27 332 53 336 57 5 5 27 150 50 323 23 173 46 322 51 330 5 9 29 36 53
60 l45 44 459 -164 c252 -89 460 -164 463 -166 2 -2 -288 -297 -645 -655 -358
-357 -643 -646 -635 -642 9 5 267 198 575 430 308 231 567 424 575 429 12 7
13 6 4 -6 -93 -121 -224 -299 -224 -303 0 -3 86 -119 190 -258 l190 -253 0
-125 0 -125 -662 -664 c-365 -366 -656 -660 -648 -654 8 5 304 227 657 492
354 264 645 481 648 481 3 0 5 -224 5 -497 l0 -498 -652 -745 c-359 -410 -643
-738 -631 -730 11 8 345 320 742 693 396 372 725 677 731 677 6 0 335 -305
731 -677 397 -373 731 -685 742 -693 12 -8 -272 320 -631 730 l-652 745 0 498
c0 273 2 497 5 497 3 0 294 -217 648 -481 353 -265 649 -487 657 -492 8 -6
-283 288 -647 654 l-663 664 0 125 0 125 190 253 c105 139 190 255 190 258 0
4 -131 182 -224 303 -9 12 -8 13 4 6 8 -5 267 -198 575 -429 308 -232 566
-425 575 -430 8 -4 -277 285 -635 642 -357 358 -647 653 -645 655 3 2 211 77
463 166 l459 164 50 -49 c27 -27 53 -56 58 -65 5 -8 27 -148 50 -310 22 -162
42 -303 45 -314 4 -19 29 -24 322 -65 l318 -44 253 -250 253 -251 49 -739 c27
-406 51 -740 53 -742 2 -2 11 270 21 604 10 334 21 633 25 665 l6 57 232 -232
232 -233 60 -915 c34 -503 61 -934 61 -957 0 -24 5 -43 10 -43 6 0 10 43 10
108 1 167 58 1863 63 1868 5 5 1694 63 1897 65 75 1 96 3 75 9 -16 5 -453 36
-970 70 l-940 61 -233 232 -232 232 72 6 c40 4 342 15 670 25 329 10 596 19
595 21 -2 1 -338 25 -747 52 l-744 50 -254 254 -253 253 -39 275 c-22 151 -42
292 -45 315 l-6 40 -312 44 -312 44 -64 62 -64 61 163 459 c90 252 165 461
167 464 2 2 297 -288 655 -645 357 -358 646 -643 642 -635 -5 9 -226 305 -492
659 -266 353 -482 645 -479 647 2 2 118 -82 257 -186 139 -105 256 -190 258
-190 3 0 119 85 259 190 l253 190 77 0 78 0 664 -662 c366 -365 660 -656 654
-648 -5 8 -227 304 -492 657 -264 354 -481 645 -481 648 0 3 224 5 498 5 l497
0 750 -657 c413 -361 741 -646 730 -633 -11 13 -325 349 -697 747 -373 397
-678 727 -678 733 0 5 307 337 683 738 376 400 687 734 691 741 5 8 -326 -279
-735 -638 l-744 -651 -497 0 c-274 0 -498 2 -498 5 0 3 217 294 481 648 265
353 487 649 492 657 6 8 -288 -283 -654 -648 l-664 -662 -78 0 -77 0 -255 191
c-175 132 -258 188 -267 182 -8 -4 -123 -90 -257 -191 -133 -101 -245 -181
-248 -179 -2 3 213 295 479 648 266 354 487 650 492 659 4 8 -285 -277 -642
-635 -358 -357 -653 -647 -655 -645 -2 3 -77 211 -167 464 l-163 459 69 66 69
67 303 44 c278 41 303 46 307 65 6 28 75 547 75 565 0 14 491 514 523 531 9 6
344 32 743 58 399 27 727 51 729 53 2 2 -271 12 -608 22 -337 10 -634 21 -660
25 l-48 6 234 233 c212 211 236 232 267 233 114 2 1880 127 1860 132 -14 3
-458 19 -988 35 -529 16 -965 32 -968 35 -5 5 -63 1680 -64 1882 -1 68 -4 102
-10 90 -4 -11 -36 -445 -69 -965 l-62 -945 -232 -233 -232 -232 -6 62 c-4 35
-15 334 -25 665 -10 332 -19 601 -21 599 -2 -2 -26 -336 -53 -742 l-50 -738
-242 -243 -242 -242 -65 -10 c-36 -6 -185 -28 -330 -50 -145 -22 -267 -43
-271 -48 -4 -4 -26 -152 -49 -328 l-43 -320 -53 -54 -53 -54 -459 163 c-252
90 -460 165 -463 167 -2 2 288 297 645 655 358 358 643 647 635 641 -8 -5
-267 -199 -575 -430 -308 -230 -567 -423 -575 -428 -12 -7 -13 -6 -4 6 78 103
224 299 224 302 0 2 -85 118 -190 257 l-190 253 0 126 0 126 663 664 c364 365
653 657 642 650 -12 -8 -307 -229 -657 -491 -350 -263 -639 -478 -642 -478 -3
0 -6 224 -6 498 l1 497 656 750 c361 413 646 741 633 730 -13 -11 -349 -325
-747 -697 -397 -373 -727 -678 -733 -678 -6 0 -335 305 -733 678 -398 372
-734 686 -746 697 -13 11 271 -317 632 -730z"/>
<path d="M377 6684 l-377 -284 380 -285 c209 -157 382 -285 385 -285 10 0 755
563 755 570 0 9 -747 570 -757 569 -5 0 -178 -128 -386 -285z"/>
<path d="M11655 6690 c-203 -153 -370 -284 -370 -289 0 -9 741 -571 752 -571
2 0 174 128 384 285 l380 286 -380 284 c-209 157 -383 285 -388 284 -4 0 -174
-126 -378 -279z"/>
<path d="M6111 1145 c-154 -206 -281 -377 -281 -380 0 -3 128 -176 285 -385
l285 -380 285 380 c157 209 285 382 285 385 0 10 -563 755 -570 755 -4 0 -134
-169 -289 -375z"/>
</g>
</svg>
