<?xml version="1.0" standalone="no"?>
<!DOCTYPE svg PUBLIC "-//W3C//DTD SVG 20010904//EN"
 "http://www.w3.org/TR/2001/REC-SVG-20010904/DTD/svg10.dtd">
<svg version="1.0" xmlns="http://www.w3.org/2000/svg"
 width="1111.000000pt" height="1280.000000pt" viewBox="0 0 1111.000000 1280.000000"
 preserveAspectRatio="xMidYMid meet">
<metadata>
Created by potrace 1.15, written by Peter Selinger 2001-2017
</metadata>
<g transform="translate(0.000000,1280.000000) scale(0.100000,-0.100000)"
fill="#000000" stroke="none">
<path d="M5531 12720 c-1 -54 -21 -123 -123 -431 l-122 -366 -145 -79 c-80
-43 -163 -88 -183 -99 l-37 -21 163 -195 c91 -107 163 -195 162 -196 -2 -2
-677 178 -828 221 l-48 14 0 -267 0 -268 178 -57 c97 -31 285 -92 416 -134
l239 -78 123 -570 c68 -313 124 -571 124 -574 0 -3 -52 -25 -115 -50 -80 -30
-115 -48 -115 -59 1 -9 13 -83 29 -164 21 -113 24 -147 14 -143 -7 3 -502 355
-1100 782 -598 427 -1093 778 -1100 781 -11 4 -12 -4 -8 -33 3 -22 33 -275 66
-564 32 -289 102 -898 154 -1353 52 -456 95 -835 95 -843 0 -8 -75 49 -167
127 -92 78 -173 143 -180 146 -7 3 -48 -24 -90 -59 -43 -35 -85 -69 -95 -76
-14 -11 -71 37 -445 378 -235 215 -429 399 -431 408 -1 9 38 206 87 436 50
231 90 421 88 422 -25 21 -454 260 -458 256 -3 -4 -57 -202 -120 -439 -63
-238 -116 -433 -119 -433 -3 0 -43 105 -89 233 -47 127 -86 234 -87 236 -2 2
-78 -43 -171 -100 -92 -56 -176 -104 -188 -106 -11 -2 -184 29 -385 70 -321
65 -372 78 -419 106 -52 31 -77 37 -46 11 23 -19 18 -28 -13 -23 -20 3 -12 -4
31 -30 48 -28 107 -89 312 -322 l253 -287 -5 -208 -6 -207 239 44 c131 24 245
42 252 41 7 -2 -131 -147 -307 -322 -177 -176 -320 -320 -319 -321 2 -1 105
-61 230 -133 l226 -130 327 293 326 294 42 -14 c53 -18 565 -182 850 -274 121
-38 221 -71 222 -73 2 -2 -5 -57 -15 -123 -11 -65 -18 -121 -15 -123 3 -3 71
-29 151 -57 81 -29 143 -55 138 -58 -9 -5 -688 -315 -1772 -808 -276 -126
-519 -237 -540 -248 l-37 -19 35 -15 c37 -15 611 -264 1240 -538 206 -89 595
-258 865 -375 466 -203 488 -213 460 -224 -17 -7 -142 -52 -280 -102 -137 -49
-253 -93 -258 -97 -4 -4 1 -61 12 -127 11 -65 19 -120 18 -120 -2 -2 -186 -60
-755 -240 l-362 -115 -34 28 c-18 15 -166 148 -329 295 l-295 268 -218 -126
c-121 -70 -223 -130 -229 -135 -6 -6 113 -132 315 -335 223 -223 317 -323 300
-320 -14 3 -119 22 -235 41 -116 20 -219 39 -229 42 -18 5 -19 -2 -14 -205 l5
-210 -253 -287 c-204 -233 -264 -294 -311 -322 -44 -26 -51 -33 -30 -30 30 5
35 -4 12 -23 -32 -27 -5 -20 45 11 46 29 92 40 414 105 198 41 370 74 381 74
12 0 97 -47 190 -104 94 -57 173 -101 176 -98 4 4 44 112 90 240 59 166 86
228 91 215 4 -10 57 -207 118 -438 61 -230 112 -420 113 -421 2 -2 448 254
456 261 2 3 -37 197 -87 432 l-92 428 25 21 c13 12 207 188 431 390 223 203
409 370 413 371 3 2 48 -31 100 -72 51 -41 96 -75 100 -75 3 1 85 68 181 150
96 81 176 147 177 146 1 -1 -4 -67 -12 -146 -67 -665 -235 -2438 -233 -2448 2
-7 485 344 1091 794 599 443 1090 804 1092 803 2 -2 -19 -125 -46 -274 -27
-148 -49 -277 -49 -286 0 -11 33 -29 113 -59 61 -23 113 -43 114 -44 3 -2
-233 -1107 -242 -1137 -3 -9 -45 -28 -108 -48 -56 -18 -243 -78 -414 -134
l-313 -101 0 -267 0 -267 48 14 c156 44 826 223 828 221 1 -1 -71 -90 -161
-197 l-164 -194 172 -92 c95 -50 179 -98 187 -106 9 -8 71 -176 138 -373 103
-304 122 -370 123 -425 1 -36 4 -55 6 -42 5 26 20 29 26 5 3 -10 5 9 6 42 1
48 25 131 123 426 l122 367 175 95 c96 52 177 99 178 104 2 5 -68 94 -156 198
-87 105 -158 191 -157 192 2 2 136 -33 631 -167 127 -34 235 -62 240 -63 6 -1
10 92 10 263 l0 264 -330 108 c-181 59 -369 120 -417 135 -54 16 -90 33 -92
42 -5 18 -246 1128 -246 1134 0 2 52 23 115 47 63 24 115 47 115 52 0 5 -25
145 -56 310 -30 165 -53 302 -51 304 2 2 514 -360 1137 -806 624 -445 1135
-808 1136 -807 2 1 -62 569 -141 1262 -80 692 -143 1260 -141 1262 1 2 72 -56
156 -127 85 -72 157 -130 161 -130 4 0 48 34 99 75 51 41 97 72 102 68 6 -3
203 -179 437 -391 255 -231 425 -392 424 -402 -1 -8 -32 -155 -68 -325 -36
-171 -75 -354 -86 -407 -12 -54 -19 -102 -17 -108 3 -9 450 -272 454 -267 1 1
52 193 114 427 61 234 114 432 117 440 2 8 44 -92 91 -223 48 -132 90 -240 93
-240 3 -1 84 47 180 106 l174 109 370 -72 c204 -39 384 -78 400 -87 17 -9 46
-25 65 -36 l35 -21 -20 24 -20 23 30 -7 c38 -10 29 0 -39 38 -44 25 -105 88
-306 315 l-251 285 7 207 7 207 -224 -39 c-123 -21 -237 -41 -254 -44 -24 -4
30 55 295 319 178 179 321 328 317 332 -3 4 -107 65 -229 135 l-222 129 -31
-29 c-16 -15 -149 -135 -295 -266 -146 -131 -279 -252 -297 -268 l-32 -30
-368 117 c-202 65 -453 145 -558 178 -104 33 -191 61 -192 62 -2 1 6 56 17
122 10 65 16 122 12 125 -4 4 -137 53 -297 109 -159 56 -294 106 -298 110 -4
3 147 77 335 163 189 85 525 239 748 340 223 102 664 303 980 447 316 143 578
265 583 269 6 6 -447 205 -1876 824 -229 99 -414 184 -410 187 5 4 58 24 118
45 61 21 113 41 117 44 5 5 -5 86 -27 218 -5 29 -3 33 27 41 18 5 105 33 193
62 88 28 313 101 500 161 187 60 352 114 366 118 25 9 49 -11 352 -284 l326
-293 230 131 230 132 -322 323 c-177 177 -315 322 -307 322 9 0 114 -18 235
-40 121 -22 228 -40 238 -40 17 0 18 10 11 208 l-7 207 252 290 c203 233 264
296 309 323 44 25 50 32 27 27 l-29 -6 19 22 c17 19 10 17 -39 -11 -51 -29
-104 -42 -419 -106 -197 -41 -367 -74 -377 -74 -10 0 -95 48 -190 106 -94 58
-173 104 -174 102 -2 -2 -40 -108 -87 -235 -46 -128 -86 -233 -89 -233 -3 0
-57 192 -119 428 -63 235 -116 432 -120 438 -5 10 -194 -93 -449 -245 -10 -6
6 -97 78 -431 50 -233 89 -429 88 -436 -2 -9 -687 -638 -844 -776 -19 -17 -23
-14 -113 57 -52 41 -97 75 -100 75 -4 0 -90 -70 -192 -156 -164 -140 -184
-154 -187 -133 -1 13 24 303 57 644 183 1889 212 2189 209 2200 -2 7 -482
-342 -1067 -776 -585 -434 -1065 -788 -1067 -787 -1 2 9 59 22 128 13 69 23
132 24 141 0 11 -33 28 -115 59 -63 24 -115 45 -115 47 0 6 240 1115 246 1134
3 9 38 26 92 42 48 15 236 76 417 135 l330 108 0 264 c0 171 -4 264 -10 263
-5 -1 -113 -29 -240 -63 -495 -134 -629 -169 -631 -167 -1 1 71 90 161 197
l164 194 -52 29 c-29 15 -111 60 -184 99 l-131 70 -121 355 c-112 329 -121
361 -121 430 0 47 -4 72 -10 68 -5 -3 -10 -16 -10 -28 0 -24 -16 -13 -23 18
-3 11 -5 -9 -6 -45z m1903 -2902 c-4 -28 -214 -2210 -214 -2223 0 -6 -457
-235 -468 -235 -4 0 25 336 65 748 40 411 72 755 70 764 -1 12 -158 -100 -547
-388 -300 -222 -548 -404 -551 -404 -6 0 -33 372 -34 473 l0 58 835 619 c459
341 838 620 842 620 4 0 5 -15 2 -32z m-2941 -621 c775 -553 867 -622 867
-645 0 -15 -5 -134 -12 -265 -9 -192 -14 -237 -25 -233 -8 3 -266 186 -574
406 -309 221 -563 399 -566 396 -3 -2 33 -335 79 -738 47 -403 84 -734 83
-736 -5 -7 -476 229 -479 240 -2 7 -52 438 -111 958 -59 520 -115 1011 -125
1093 -9 81 -14 146 -10 145 3 -2 396 -281 873 -621z m1850 -1309 c-36 -335
-90 -945 -85 -950 6 -5 326 -145 876 -383 l29 -13 -44 -19 c-307 -139 -846
-386 -852 -392 -5 -5 17 -226 48 -491 30 -266 53 -485 51 -487 -2 -2 -184 125
-404 282 l-400 286 -391 -291 c-215 -159 -395 -290 -399 -290 -6 0 35 458 82
921 l5 56 -455 198 c-250 109 -453 199 -452 200 2 2 203 94 448 205 245 111
446 204 448 205 2 2 -22 222 -52 491 -31 268 -55 489 -53 490 2 2 182 -125
402 -281 219 -157 401 -285 404 -285 3 1 182 131 396 290 215 160 392 290 395
290 4 0 4 -15 3 -32z m1853 -812 c335 -145 736 -319 892 -387 155 -67 279
-126 275 -130 -5 -4 -350 -164 -768 -354 -418 -191 -874 -399 -1014 -462 -140
-64 -260 -116 -265 -116 -6 0 -109 65 -229 143 l-218 143 68 32 c37 17 350
159 695 316 345 156 627 287 628 290 0 4 -252 116 -560 250 -308 133 -559 246
-558 251 4 11 432 296 439 292 3 -2 280 -122 615 -268z m-4410 112 c123 -79
223 -145 223 -148 0 -3 -259 -122 -575 -266 -317 -143 -576 -265 -576 -269 0
-5 302 -140 671 -300 369 -159 670 -292 670 -295 0 -3 -98 -71 -218 -152
l-218 -147 -629 273 c-346 151 -799 347 -1006 437 -207 90 -376 169 -375 174
0 6 247 122 547 259 300 136 705 322 900 411 195 90 357 163 359 164 2 1 105
-63 227 -141z m494 -2383 c-34 -345 -59 -629 -57 -631 2 -2 246 176 543 395
334 248 540 395 542 386 2 -7 11 -127 20 -265 l17 -252 -834 -619 c-460 -340
-836 -617 -837 -616 -6 8 193 1988 201 1996 14 12 459 241 462 237 2 -2 -24
-286 -57 -631z m2760 487 l235 -117 110 -968 c70 -614 107 -966 100 -963 -13
5 -1693 1203 -1713 1221 -11 10 -11 57 1 269 8 141 17 259 19 261 2 2 258
-177 568 -398 311 -222 566 -398 568 -391 3 10 -120 1112 -132 1182 -2 12 0
22 3 21 3 0 112 -53 241 -117z"/>
</g>
</svg>
