<svg id="svg" version="1.1" xmlns="http://www.w3.org/2000/svg" xmlns:xlink="http://www.w3.org/1999/xlink" width="400" height="391.4346895074947" viewBox="0, 0, 400,391.4346895074947"><g id="svgg"><path id="path0" d="M175.612 30.991 C 174.104 32.553,176.042 34.680,184.485 40.736 C 188.062 43.301,192.091 46.453,193.438 47.740 C 196.380 50.552,196.390 50.511,194.534 43.291 C 193.679 39.963,193.358 38.062,193.608 37.806 C 194.392 37.003,200.399 44.589,201.986 48.388 C 202.481 49.573,202.736 49.755,203.900 49.755 C 204.638 49.755,205.352 49.931,205.485 50.147 C 205.618 50.362,205.997 50.539,206.326 50.539 C 210.757 50.539,223.505 60.189,227.573 66.623 C 229.297 69.351,229.577 69.270,229.583 66.046 C 229.613 49.111,254.896 43.096,262.314 58.259 C 268.349 70.594,260.420 88.485,248.425 89.596 C 245.854 89.834,246.315 89.234,249.657 87.992 C 251.461 87.322,252.129 86.582,250.930 86.582 C 250.122 86.582,250.176 86.352,251.488 84.220 C 254.991 78.527,255.218 71.005,252.024 66.472 C 251.029 65.060,250.798 64.451,251.112 64.072 C 251.729 63.329,254.815 62.560,255.885 62.884 C 257.397 63.341,259.504 64.344,260.210 64.942 C 262.655 67.015,261.141 62.129,258.517 59.478 C 252.893 53.796,242.654 59.141,239.037 69.648 C 236.334 77.498,237.125 82.339,242.157 88.749 C 245.919 93.542,249.162 99.750,250.928 105.538 C 252.441 110.497,252.387 110.620,248.573 110.936 C 245.019 111.231,242.236 112.169,239.276 114.068 C 236.887 115.601,237.301 115.833,241.313 115.211 C 247.904 114.188,252.567 114.966,257.613 117.928 C 260.451 119.594,265.622 124.645,265.622 125.751 C 265.622 126.705,265.852 126.701,263.258 125.794 C 262.080 125.382,260.238 124.916,259.165 124.757 L 257.214 124.468 259.995 127.170 C 262.815 129.910,265.979 135.389,266.533 138.492 C 266.648 139.138,266.862 139.976,267.008 140.353 C 267.462 141.527,266.506 141.113,264.996 139.481 C 263.273 137.619,262.686 137.743,263.655 139.766 C 266.394 145.480,266.141 153.738,263.032 160.093 C 261.683 162.849,261.544 162.774,260.949 158.962 C 259.207 147.812,257.264 144.611,256.966 152.400 C 256.594 162.134,254.378 167.115,247.344 174.031 C 240.150 181.105,232.594 185.791,223.567 188.777 C 218.840 190.341,218.069 190.294,219.744 188.544 C 220.829 187.412,221.292 186.484,220.774 186.484 C 220.672 186.484,218.422 187.526,215.774 188.800 C 207.816 192.629,199.514 195.020,195.744 194.569 C 194.637 194.436,191.792 194.514,189.422 194.741 C 187.052 194.968,183.879 195.098,182.370 195.030 L 179.628 194.907 180.509 194.025 C 181.609 192.926,181.503 192.931,177.677 194.152 C 165.973 197.890,156.781 196.475,145.353 189.177 C 141.871 186.953,141.626 187.142,143.836 190.345 C 144.745 191.663,145.383 192.848,145.252 192.979 C 145.027 193.204,141.358 192.310,139.667 191.618 C 137.056 190.549,132.762 188.459,130.930 187.365 C 127.560 185.352,126.396 185.836,129.362 188.017 C 132.131 190.053,129.996 189.432,124.766 186.680 C 122.105 185.280,119.826 184.300,119.701 184.502 C 119.576 184.703,119.765 185.031,120.120 185.230 C 120.573 185.484,120.631 185.676,120.314 185.872 C 119.100 186.622,109.874 180.654,104.790 175.830 C 97.115 168.547,93.892 162.487,93.058 153.771 C 92.468 147.609,92.128 146.470,91.507 148.580 C 90.487 152.042,89.992 154.241,89.509 157.449 C 88.834 161.932,88.821 161.947,87.653 159.588 C 84.607 153.437,84.196 145.493,86.637 139.961 C 88.157 136.514,87.891 135.629,86.043 137.990 C 84.718 139.683,84.383 139.165,85.173 136.646 C 86.773 131.553,89.764 127.093,92.605 125.563 C 95.830 123.826,94.897 123.504,89.771 124.586 C 85.428 125.503,85.024 125.368,86.431 123.471 C 92.177 115.727,101.071 112.798,110.872 115.422 L 111.851 115.685 110.720 114.474 C 110.098 113.808,108.335 112.611,106.802 111.814 C 105.270 111.017,103.940 110.301,103.848 110.223 C 103.756 110.144,104.128 109.597,104.674 109.007 C 106.104 107.462,106.649 106.296,109.111 99.510 C 116.898 78.051,125.724 65.487,139.581 56.136 C 144.945 52.516,145.866 52.266,151.518 52.889 C 156.575 53.446,156.694 53.583,153.771 55.453 C 146.440 60.142,146.866 61.579,155.962 62.842 C 167.775 64.483,169.089 64.056,162.247 60.803 C 157.005 58.310,156.480 57.802,158.543 57.221 C 161.633 56.351,165.611 55.937,168.551 56.181 C 175.844 56.786,165.904 50.817,156.179 48.752 C 152.031 47.871,151.898 47.636,154.992 46.656 C 163.469 43.969,170.339 44.031,179.738 46.879 C 185.090 48.501,185.106 48.494,183.516 45.168 C 181.496 40.945,179.076 39.477,171.691 37.998 C 170.454 37.750,168.703 37.385,167.799 37.187 C 165.201 36.617,154.931 36.753,151.616 37.401 C 141.894 39.301,137.274 43.304,144.222 43.806 C 147.335 44.031,147.110 44.382,141.998 47.274 L 137.727 49.690 134.773 46.882 C 130.434 42.757,126.493 41.134,120.834 41.140 C 101.552 41.164,92.389 66.256,105.444 83.288 L 107.496 85.966 105.899 90.485 C 101.922 101.740,101.204 103.436,99.920 104.603 C 99.582 104.911,97.470 107.454,96.205 109.078 C 95.523 109.954,94.233 110.918,93.034 111.448 C 86.422 114.372,81.262 119.596,78.031 126.636 C 76.581 129.797,76.841 130.541,79.209 130.009 C 81.325 129.534,81.383 129.668,80.200 132.313 C 77.935 137.377,77.074 141.238,77.248 145.544 L 77.375 148.678 78.452 148.604 C 79.468 148.535,79.530 148.625,79.533 150.171 C 79.546 157.957,82.734 166.068,87.705 170.959 L 89.646 172.869 90.268 171.664 C 90.611 171.002,90.891 170.187,90.891 169.853 C 90.891 168.625,91.733 169.312,93.416 171.912 C 96.309 176.384,99.390 179.622,104.938 184.019 C 108.605 186.925,108.674 187.148,107.034 190.818 C 104.642 196.172,101.827 204.727,100.339 211.166 C 98.026 221.173,97.947 230.815,100.125 237.330 C 100.985 239.905,100.840 240.436,98.678 242.627 C 92.191 249.202,87.691 255.716,84.823 262.684 C 84.202 264.192,83.582 265.602,83.445 265.818 C 83.309 266.033,82.968 267.003,82.689 267.973 C 82.410 268.942,82.037 270.176,81.860 270.715 C 76.173 288.050,80.585 308.039,93.279 322.444 L 95.987 325.517 95.115 326.128 C 94.635 326.464,94.040 326.738,93.793 326.738 C 92.872 326.738,87.484 330.589,86.284 332.105 C 79.799 340.292,82.271 348.377,91.672 349.732 C 92.640 349.871,94.086 350.459,94.885 351.038 C 97.173 352.696,99.409 353.169,102.338 352.616 C 104.726 352.166,104.864 352.186,106.760 353.252 C 109.421 354.749,113.545 354.749,118.119 353.252 C 125.547 350.822,133.549 349.434,143.389 348.867 C 148.886 348.551,150.488 348.222,153.682 346.760 C 155.851 345.766,156.409 345.662,158.102 345.936 C 161.557 346.494,166.627 347.089,169.833 347.311 C 171.557 347.431,173.717 347.622,174.633 347.735 L 176.298 347.942 176.306 350.171 C 176.326 355.374,180.181 359.256,185.328 359.256 C 186.891 359.256,187.680 359.539,189.636 360.803 C 192.598 362.718,194.832 363.125,197.886 362.307 C 200.025 361.734,200.164 361.746,202.397 362.688 C 206.464 364.403,208.616 364.126,222.919 360.039 C 229.672 358.110,232.955 357.461,238.786 356.903 C 252.581 355.583,255.603 354.338,258.853 348.636 C 261.171 344.567,265.357 341.540,269.627 340.844 C 287.320 337.959,299.759 333.746,313.026 326.143 C 314.427 325.340,316.190 324.333,316.944 323.903 C 333.084 314.715,353.152 294.583,364.571 276.124 C 368.043 270.511,368.505 269.677,371.378 263.859 C 377.296 251.872,380.565 241.886,382.921 228.599 C 391.975 177.546,363.208 139.045,322.177 147.300 C 297.380 152.289,278.332 173.139,267.318 207.346 C 267.197 207.723,266.972 208.031,266.818 208.031 C 266.601 208.031,258.661 195.121,257.786 193.346 C 257.679 193.127,256.048 190.367,254.163 187.212 C 250.002 180.249,249.974 181.342,254.455 175.696 C 258.549 170.539,258.965 170.239,259.621 171.977 C 260.247 173.635,260.908 173.471,263.142 171.107 C 267.920 166.048,270.174 160.844,270.648 153.771 C 270.903 149.969,270.940 149.849,271.890 149.727 C 274.936 149.337,274.346 139.605,270.860 132.732 C 269.996 131.029,270.161 130.803,272.171 130.930 C 274.637 131.087,274.705 130.536,272.730 126.418 C 270.052 120.833,266.798 117.055,262.026 113.988 C 260.371 112.925,258.931 111.744,258.825 111.365 C 258.220 109.192,256.724 104.265,255.577 100.668 C 253.914 95.450,253.912 95.478,256.037 94.016 C 265.818 87.287,270.126 79.322,270.123 67.973 C 270.117 45.630,247.291 35.295,229.620 49.633 C 227.811 51.101,226.017 52.535,225.633 52.820 C 225.021 53.275,224.558 53.077,221.870 51.213 C 217.100 47.904,211.523 45.194,205.969 43.485 C 204.456 43.019,203.633 42.175,198.572 35.891 C 194.063 30.293,189.226 29.201,189.226 33.780 C 189.226 35.083,188.451 35.203,186.936 34.134 C 183.018 31.368,176.890 29.668,175.612 30.991 M124.497 48.185 C 127.809 49.615,131.119 53.813,130.178 55.388 C 129.583 56.383,124.671 60.725,124.141 60.725 C 123.845 60.725,122.951 59.683,122.155 58.410 C 117.255 50.570,109.453 52.437,107.745 61.859 C 107.168 65.043,107.515 65.357,109.012 63.004 C 110.058 61.358,112.108 60.003,114.012 59.699 L 115.754 59.420 115.063 60.366 C 112.296 64.152,110.922 70.644,111.952 75.057 C 112.327 76.659,111.628 79.530,110.865 79.530 C 109.790 79.530,106.830 74.460,105.969 71.144 C 102.073 56.143,112.631 43.060,124.497 48.185 M134.243 77.337 C 132.492 77.987,131.018 79.263,130.198 80.840 C 129.427 82.323,129.743 82.519,131.524 81.657 C 134.207 80.358,140.366 80.530,141.998 81.949 C 143.083 82.892,143.330 81.701,142.415 79.933 C 141.098 77.386,137.332 76.189,134.243 77.337 M200.392 76.961 C 200.176 77.043,199.529 77.214,198.953 77.341 C 197.606 77.637,195.634 79.299,194.864 80.788 C 194.044 82.375,194.251 82.442,197.084 81.512 C 201.264 80.140,204.769 80.640,208.484 83.140 C 210.119 84.240,210.472 84.031,209.780 82.370 C 208.293 78.805,203.216 75.880,200.392 76.961 M129.089 93.254 C 128.012 93.670,126.220 94.807,125.108 95.781 C 122.721 97.871,122.131 97.933,119.480 96.370 C 116.336 94.516,115.822 96.405,118.556 99.772 C 120.484 102.146,119.578 103.625,116.032 103.892 C 113.771 104.062,113.911 104.593,116.580 105.975 L 118.850 107.150 118.959 111.848 C 119.108 118.271,120.666 121.378,120.666 115.252 C 120.666 108.772,124.726 101.140,129.174 99.260 C 131.823 98.140,131.874 98.669,129.358 101.161 C 124.152 106.319,122.587 113.122,125.024 120.010 C 125.975 122.699,125.914 122.820,123.919 122.222 C 123.081 121.971,121.962 121.831,121.432 121.911 C 119.486 122.205,125.535 124.424,131.529 125.614 L 134.931 126.290 133.577 127.298 C 125.798 133.089,122.177 140.342,123.883 146.718 C 124.551 149.216,125.069 148.729,125.585 145.118 C 126.920 135.772,130.324 131.859,142.513 125.663 C 144.335 124.737,144.521 123.922,142.865 124.122 C 141.488 124.288,141.549 123.772,143.155 121.669 C 145.272 118.896,145.905 116.478,145.880 111.263 C 145.818 98.372,137.885 89.863,129.089 93.254 M198.433 93.126 C 190.889 96.144,185.657 104.907,185.735 114.398 C 185.775 119.411,186.433 119.080,188.071 113.222 C 189.800 107.039,194.848 100.303,198.579 99.199 C 200.705 98.571,201.021 98.820,199.576 99.985 C 191.836 106.226,189.855 115.369,194.648 122.731 C 195.825 124.539,195.639 124.759,193.037 124.635 C 190.227 124.500,191.486 125.443,195.331 126.352 C 200.926 127.676,208.070 127.237,215.464 125.116 C 216.688 124.766,218.543 123.808,218.022 123.797 C 216.701 123.768,216.564 123.078,217.606 121.711 C 219.648 119.034,220.242 116.686,220.135 111.711 L 220.038 107.219 221.576 106.763 C 225.309 105.657,225.664 104.976,222.857 104.309 C 218.903 103.370,218.153 102.186,220.183 100.091 C 222.790 97.401,222.453 94.914,219.700 96.528 C 217.211 97.986,216.061 97.856,213.123 95.787 C 208.494 92.528,202.598 91.459,198.433 93.126 M139.482 102.529 C 140.994 103.571,141.404 104.289,141.418 105.915 C 141.443 108.945,137.809 110.771,135.449 108.915 C 131.828 106.066,135.705 99.925,139.482 102.529 M211.603 103.382 C 215.510 107.289,211.039 113.244,206.111 110.696 C 201.863 108.499,203.458 101.861,208.234 101.861 C 209.859 101.861,210.266 102.045,211.603 103.382 M156.415 117.394 C 154.650 117.780,155.615 118.200,159.311 118.654 C 163.328 119.148,163.886 119.056,162.898 118.068 C 162.264 117.434,158.177 117.009,156.415 117.394 M154.358 120.715 C 143.880 122.415,139.335 130.674,145.161 137.429 C 150.958 144.151,157.834 145.126,165.656 140.334 C 175.582 134.253,175.594 126.990,165.685 122.327 C 161.878 120.535,158.465 120.049,154.358 120.715 M162.684 126.449 C 165.196 127.574,165.392 129.363,163.109 130.317 C 156.579 133.045,146.744 130.084,150.909 126.644 C 152.702 125.162,159.556 125.049,162.684 126.449 M185.585 126.808 C 185.701 127.109,186.400 127.608,187.139 127.917 C 195.723 131.503,202.938 140.465,202.938 147.540 C 202.938 150.013,203.526 149.668,204.322 146.728 C 206.646 138.142,199.245 129.168,187.874 126.784 C 185.742 126.337,185.406 126.341,185.585 126.808 M133.301 133.484 C 132.507 133.769,132.711 135.162,133.547 135.162 C 134.710 135.162,135.376 134.125,134.501 133.675 C 134.110 133.473,133.570 133.388,133.301 133.484 M189.116 136.043 C 188.868 136.734,189.542 137.904,190.187 137.904 C 190.903 137.904,191.166 137.093,190.727 136.239 C 190.318 135.444,189.372 135.329,189.116 136.043 M134.419 137.658 C 133.893 138.292,134.245 139.471,134.960 139.471 C 135.947 139.471,136.416 138.431,135.735 137.750 C 134.973 136.988,134.976 136.988,134.419 137.658 M185.048 138.910 C 184.656 139.932,185.524 140.461,186.709 139.921 C 187.558 139.534,187.655 139.350,187.259 138.874 C 186.628 138.114,185.346 138.135,185.048 138.910 M139.695 142.086 C 139.524 142.532,139.674 142.960,140.114 143.282 C 140.926 143.875,141.565 143.402,141.364 142.358 C 141.179 141.397,140.031 141.210,139.695 142.086 M131.384 142.414 C 130.964 143.508,132.016 144.304,132.866 143.535 C 133.418 143.036,133.487 142.752,133.153 142.350 C 132.570 141.647,131.666 141.679,131.384 142.414 M175.656 142.801 C 175.236 143.897,175.801 144.648,176.689 144.173 C 177.331 143.829,177.404 143.601,177.072 142.981 C 176.583 142.066,175.968 141.988,175.656 142.801 M189.501 142.461 C 188.829 143.133,189.234 144.226,190.108 144.102 C 190.684 144.020,190.989 143.707,190.989 143.198 C 190.989 142.421,190.021 141.941,189.501 142.461 M181.551 143.537 C 181.234 144.363,181.679 144.956,182.616 144.956 C 183.208 144.956,183.373 144.738,183.279 144.078 C 183.133 143.054,181.886 142.664,181.551 143.537 M154.272 148.039 C 149.781 157.692,137.631 159.323,129.539 151.360 C 127.044 148.904,126.580 148.888,127.298 151.284 C 128.561 155.502,132.345 159.049,137.080 160.455 C 139.336 161.125,139.586 161.465,140.397 164.963 C 143.402 177.919,148.988 183.515,156.540 181.135 C 158.584 180.491,158.606 180.493,161.188 181.590 C 169.108 184.956,174.131 181.130,178.117 168.694 C 179.628 163.984,180.369 163.286,184.790 162.416 C 192.643 160.869,198.663 156.003,198.608 151.246 L 198.588 149.461 197.934 150.441 C 194.175 156.068,183.135 159.815,173.620 158.692 C 165.240 157.704,159.857 154.308,156.662 147.992 C 155.290 145.281,155.558 145.275,154.272 148.039 M338.282 156.522 C 365.031 161.186,380.515 191.133,373.728 225.073 C 373.512 226.151,373.143 228.002,372.908 229.187 C 363.830 274.926,325.350 317.060,281.692 329.067 C 276.011 330.629,275.399 329.255,281.015 327.545 C 295.618 323.099,305.675 317.779,319.099 307.397 C 346.949 285.858,366.852 253.826,371.346 223.310 C 371.584 221.694,371.978 219.075,372.220 217.489 C 376.107 192.080,362.978 166.491,343.193 160.912 C 342.008 160.578,340.313 160.112,339.426 159.878 C 337.299 159.316,326.866 159.330,324.491 159.898 C 302.935 165.058,287.105 183.183,275.205 216.331 C 273.591 220.825,273.460 218.283,275.028 212.929 C 275.217 212.282,275.537 211.136,275.739 210.382 C 279.483 196.408,289.715 179.118,299.851 169.638 C 310.861 159.340,325.598 154.310,338.282 156.522 M159.423 158.020 C 162.569 160.705,165.965 162.185,172.086 163.538 C 174.385 164.046,172.100 172.717,168.750 176.200 C 166.401 178.641,160.926 177.569,159.257 174.341 C 158.523 172.923,157.986 172.846,157.512 174.092 C 155.762 178.696,149.952 177.318,147.234 171.655 C 144.261 165.462,143.909 161.603,146.216 160.512 C 154.927 156.392,154.407 156.393,155.345 160.496 C 156.354 164.911,156.709 164.864,156.709 160.313 C 156.709 155.748,156.736 155.726,159.423 158.020 M339.252 162.654 C 341.156 163.094,344.147 166.564,345.371 169.754 C 345.520 170.141,344.235 170.555,340.366 171.365 C 337.504 171.965,334.650 172.614,334.026 172.809 C 331.225 173.683,331.059 173.548,328.378 168.227 C 326.395 164.290,325.996 163.204,326.369 162.755 C 326.962 162.040,336.276 161.968,339.252 162.654 M323.902 166.014 C 328.641 174.979,328.579 174.081,324.554 175.444 C 323.246 175.887,321.483 176.513,320.637 176.836 C 314.818 179.056,308.991 180.972,308.667 180.772 C 308.312 180.553,306.787 177.401,305.616 174.466 C 304.744 172.279,306.217 170.825,313.065 167.114 C 320.222 163.236,322.321 163.023,323.902 166.014 M349.292 166.699 C 350.471 167.453,351.589 168.071,351.778 168.071 C 352.382 168.071,352.603 169.268,352.039 169.484 C 350.521 170.067,348.896 169.428,347.617 167.746 C 345.465 164.917,345.992 164.588,349.292 166.699 M357.101 173.100 C 359.987 175.077,365.381 184.273,367.463 190.769 C 368.442 193.821,368.355 193.913,364.479 193.922 C 360.779 193.929,360.541 193.804,359.379 191.230 C 358.833 190.020,357.877 187.916,357.254 186.554 C 356.631 185.193,356.121 184.018,356.121 183.945 C 356.121 183.871,355.529 182.517,354.804 180.936 C 350.352 171.221,350.756 172.468,351.910 171.988 C 353.226 171.440,355.338 171.892,357.101 173.100 M348.548 174.829 C 349.787 176.784,352.872 182.827,353.906 185.325 C 354.303 186.286,354.862 187.600,355.147 188.247 C 356.392 191.069,357.199 193.550,356.926 193.718 C 356.537 193.959,342.103 195.873,340.601 195.883 C 340.235 195.886,339.227 193.594,335.351 183.937 C 332.707 177.351,332.299 176.091,332.734 175.855 C 332.992 175.714,335.054 175.207,337.316 174.729 C 339.579 174.250,341.871 173.716,342.409 173.542 C 345.281 172.614,347.430 173.065,348.548 174.829 M303.390 176.787 C 303.776 177.703,304.427 179.200,304.837 180.113 C 305.247 181.027,305.581 181.908,305.579 182.072 C 305.574 182.547,291.546 189.651,291.323 189.291 C 290.823 188.481,301.144 175.122,302.271 175.122 C 302.501 175.122,303.005 175.872,303.390 176.787 M329.643 178.355 C 330.496 179.672,336.533 195.226,336.533 196.109 C 336.533 196.788,318.940 201.806,316.685 201.770 C 316.434 201.766,315.758 200.485,315.182 198.923 C 313.774 195.107,312.145 190.773,310.910 187.557 C 309.492 183.866,309.542 183.586,311.753 182.846 C 312.777 182.504,316.611 181.164,320.274 179.869 C 327.727 177.233,328.803 177.059,329.643 178.355 M307.136 186.386 C 307.863 187.921,308.112 188.560,309.694 192.948 C 310.470 195.103,311.437 197.747,311.843 198.825 C 313.102 202.167,313.150 202.544,312.413 203.358 C 312.037 203.774,311.550 204.114,311.331 204.114 C 311.111 204.114,306.687 205.765,301.499 207.784 C 296.311 209.802,291.758 211.560,291.381 211.689 C 290.670 211.933,290.229 211.167,288.957 207.485 C 288.652 206.600,287.861 204.378,287.200 202.547 C 284.904 196.186,284.829 196.277,298.114 189.334 C 306.741 184.825,306.443 184.922,307.136 186.386 M246.067 189.649 C 247.271 191.679,249.104 194.927,250.141 196.866 C 251.178 198.805,252.151 200.568,252.303 200.784 C 252.622 201.235,254.435 204.580,257.401 210.186 C 258.541 212.341,259.605 214.280,259.765 214.496 C 260.289 215.199,267.443 229.690,268.953 233.105 C 269.762 234.936,270.767 237.203,271.186 238.141 C 274.214 244.925,279.023 259.416,280.306 265.622 C 280.462 266.376,280.743 267.698,280.931 268.560 C 285.782 290.816,279.034 318.439,265.394 332.162 C 262.419 335.156,262.096 335.047,262.096 331.048 C 262.096 327.224,261.575 326.748,260.926 329.979 C 258.221 343.448,254.034 347.568,240.715 349.862 C 236.853 350.527,232.811 351.225,231.734 351.412 C 226.542 352.313,223.132 353.167,219.001 354.602 C 208.641 358.200,206.773 358.449,204.818 356.495 C 202.735 354.411,204.047 349.931,207.882 346.033 C 210.226 343.651,209.680 343.282,206.639 345.196 C 204.096 346.796,201.617 349.470,199.877 352.491 C 196.036 359.157,188.884 355.450,192.182 348.501 C 193.017 346.740,196.191 343.190,197.608 342.432 C 198.670 341.863,198.965 341.234,198.168 341.234 C 195.363 341.234,189.022 346.332,187.336 349.943 C 186.128 352.530,185.688 352.812,184.120 352.001 C 178.836 349.268,183.951 341.772,193.144 338.777 C 198.456 337.046,200.194 336.782,206.268 336.782 C 213.646 336.782,214.142 336.897,229.187 342.112 C 233.256 343.522,234.171 343.693,238.633 343.875 C 243.611 344.078,246.599 343.583,243.873 343.007 C 240.801 342.358,235.938 340.915,230.950 339.172 C 221.323 335.809,217.312 334.543,214.300 333.917 C 210.025 333.028,206.994 330.105,203.811 323.800 C 186.933 290.377,214.033 253.022,255.240 252.908 C 258.903 252.898,262.730 253.017,263.745 253.173 C 266.216 253.554,265.929 252.755,263.157 251.538 C 258.016 249.282,253.332 248.583,245.414 248.893 L 239.379 249.128 239.922 247.875 C 240.221 247.185,240.926 245.599,241.489 244.351 C 244.091 238.580,245.225 227.889,243.803 222.527 C 243.546 221.557,243.225 220.244,243.090 219.609 C 242.729 217.908,242.130 219.105,242.119 221.548 C 242.042 239.865,229.183 255.317,210.971 258.981 C 205.433 260.095,205.438 260.101,208.624 256.024 C 211.443 252.414,210.813 252.350,205.003 255.654 C 199.041 259.045,198.721 259.230,194.331 261.845 C 189.637 264.640,188.313 264.650,187.267 261.898 C 186.587 260.110,187.774 255.913,189.732 253.184 C 191.131 251.232,190.945 250.701,189.290 251.925 C 188.174 252.750,187.154 254.060,183.811 258.962 C 182.445 260.964,182.231 261.117,180.789 261.117 C 176.989 261.117,176.428 254.280,179.810 249.185 C 182.077 245.768,179.552 247.155,176.920 250.771 C 174.841 253.629,174.360 253.243,175.518 249.646 C 179.342 237.763,194.572 222.962,207.052 218.998 C 207.914 218.724,209.060 218.362,209.598 218.192 C 210.137 218.023,211.239 217.775,212.047 217.642 C 214.130 217.297,213.930 216.422,211.699 216.116 C 205.182 215.223,199.324 216.482,193.732 219.979 C 190.165 222.209,190.145 222.129,192.927 216.785 C 194.345 214.059,195.423 211.747,195.321 211.645 C 194.122 210.445,188.094 218.986,186.893 223.586 C 186.567 224.836,185.657 226.063,183.114 228.679 C 172.335 239.768,167.752 251.802,171.385 259.480 C 173.608 264.180,179.246 268.326,183.477 268.374 C 183.946 268.379,185.370 268.732,186.643 269.158 C 190.843 270.563,192.643 270.241,197.009 267.301 L 199.503 265.622 203.376 265.622 C 205.505 265.622,207.248 265.707,207.248 265.812 C 207.248 265.916,206.275 267.261,205.086 268.799 C 190.164 288.113,188.014 308.357,198.730 328.637 C 200.548 332.078,200.898 331.633,195.458 332.786 C 188.303 334.301,185.060 335.639,182.370 338.182 C 180.751 339.713,180.080 339.819,173.869 339.522 C 163.620 339.033,154.729 337.435,147.111 334.712 C 145.602 334.173,144.021 333.626,143.596 333.497 C 129.874 329.323,114.382 314.060,108.569 298.986 C 103.091 284.781,102.150 272.325,105.442 257.591 C 107.005 250.596,106.859 250.711,110.461 253.657 C 115.238 257.566,121.540 260.529,125.074 260.529 C 128.204 260.529,130.165 261.374,132.818 263.865 C 136.510 267.333,137.390 267.722,140.804 267.399 C 142.333 267.255,144.998 267.159,146.726 267.188 C 150.446 267.248,151.709 266.840,153.660 264.944 C 154.461 264.166,155.954 263.075,156.978 262.519 C 165.314 257.994,162.780 242.441,151.456 228.626 C 150.243 227.146,149.154 225.477,149.036 224.917 C 148.529 222.517,147.140 219.031,145.819 216.846 C 143.797 213.499,141.294 211.072,143.003 214.115 C 143.876 215.669,145.348 219.835,145.348 220.752 C 145.348 221.638,144.754 221.495,142.489 220.065 C 136.381 216.209,132.319 214.810,128.583 215.276 C 124.682 215.762,124.408 216.230,127.428 217.248 C 142.077 222.182,158.419 242.078,156.899 253.130 C 156.604 255.277,155.715 255.739,155.290 253.967 C 154.810 251.963,151.814 246.819,151.126 246.818 C 150.758 246.817,150.738 248.159,151.101 248.522 C 152.427 249.848,152.903 257.285,151.766 258.908 C 149.483 262.167,147.489 261.647,145.307 257.222 C 142.314 251.155,139.566 248.389,141.399 253.289 C 142.327 255.769,142.467 259.575,141.668 260.627 C 140.456 262.224,139.263 261.595,129.218 254.064 C 123.902 250.078,119.274 246.817,118.934 246.817 C 118.270 246.817,118.081 247.801,118.675 248.168 C 119.159 248.468,122.567 253.262,122.885 254.092 C 123.065 254.559,122.062 254.197,119.454 252.850 C 111.350 248.667,106.083 241.348,104.542 232.125 C 104.088 229.415,104.370 221.728,105.012 219.289 C 105.252 218.377,105.608 217.013,105.803 216.259 C 106.351 214.133,109.086 205.853,110.462 202.155 C 111.143 200.323,112.113 197.654,112.618 196.224 C 114.759 190.156,114.684 190.211,117.783 192.459 C 125.248 197.874,132.847 201.352,128.697 197.453 C 126.627 195.509,127.818 195.576,130.950 197.582 C 134.703 199.984,140.526 202.844,144.172 204.075 C 145.573 204.547,147.025 205.102,147.399 205.307 C 147.773 205.513,148.296 205.681,148.561 205.681 C 149.518 205.681,147.748 204.405,142.041 200.980 C 135.668 197.157,135.428 196.674,140.493 197.877 C 149.078 199.916,159.874 201.351,166.719 201.363 C 169.963 201.369,171.593 201.524,171.931 201.861 C 172.704 202.632,184.493 202.450,190.010 201.583 C 200.287 199.967,201.131 200.214,193.928 202.727 C 191.665 203.517,188.932 204.488,187.855 204.885 C 186.778 205.282,185.562 205.715,185.155 205.849 C 183.969 206.236,184.791 206.624,186.592 206.528 C 193.596 206.152,210.278 200.773,221.510 195.269 C 224.112 193.993,224.429 194.838,221.939 196.412 C 220.447 197.354,219.683 198.237,220.358 198.237 C 222.457 198.237,233.634 192.553,238.786 188.867 C 243.946 185.173,243.377 185.112,246.067 189.649 M369.022 197.009 C 369.496 197.896,370.062 215.898,369.679 217.939 C 369.392 219.468,368.266 220.017,368.266 218.628 C 368.266 218.207,368.106 217.458,367.911 216.963 C 367.715 216.468,367.171 214.740,366.702 213.124 C 365.641 209.466,364.071 204.244,363.131 201.248 C 362.738 199.996,362.302 198.365,362.163 197.625 L 361.911 196.278 365.271 196.278 C 368.148 196.278,368.687 196.383,369.022 197.009 M358.161 197.160 C 358.503 197.429,359.967 201.352,361.413 205.877 C 362.860 210.402,364.376 215.147,364.783 216.421 C 366.003 220.236,366.251 220.020,360.333 220.312 C 357.478 220.454,353.793 220.681,352.144 220.818 L 349.145 221.067 348.573 219.936 C 347.183 217.187,341.448 199.433,341.828 199.053 C 342.340 198.541,352.342 196.958,356.536 196.726 C 357.088 196.695,357.819 196.890,358.161 197.160 M337.800 200.294 C 338.149 200.563,338.877 202.106,339.419 203.722 C 339.960 205.338,341.481 209.815,342.797 213.672 C 345.656 222.045,345.803 221.412,340.788 222.293 C 338.555 222.685,336.112 223.157,335.357 223.342 C 331.399 224.311,324.700 225.344,324.399 225.033 C 324.009 224.627,317.728 206.167,317.728 205.425 C 317.728 205.150,318.904 204.593,320.372 204.172 C 324.606 202.958,330.299 201.428,332.419 200.934 C 333.497 200.684,334.819 200.340,335.357 200.172 C 336.770 199.731,337.092 199.747,337.800 200.294 M284.564 203.232 C 285.736 205.534,287.954 212.505,287.734 213.198 C 287.402 214.243,282.274 216.776,281.762 216.147 C 280.009 213.994,279.758 211.065,281.099 208.418 C 281.639 207.353,282.445 205.507,282.890 204.318 C 283.827 201.815,283.838 201.808,284.564 203.232 M317.632 215.894 C 319.410 221.158,320.795 225.651,320.710 225.878 C 320.524 226.371,319.278 226.772,309.109 229.616 C 296.773 233.067,298.003 233.147,296.490 228.795 C 295.854 226.964,294.540 223.216,293.570 220.467 C 292.601 217.718,291.875 215.268,291.956 215.022 C 292.120 214.532,313.376 206.042,314.006 206.216 C 314.221 206.275,315.853 210.631,317.632 215.894 M279.334 217.213 C 279.334 217.852,278.231 218.812,277.890 218.471 C 277.505 218.086,278.501 216.182,278.944 216.455 C 279.158 216.588,279.334 216.929,279.334 217.213 M289.703 218.052 C 290.219 219.285,291.007 221.490,294.284 230.868 C 295.293 233.755,295.166 234.022,292.316 234.984 L 289.958 235.780 289.347 234.848 C 289.011 234.335,288.737 233.681,288.737 233.393 C 288.737 233.105,288.589 232.702,288.410 232.498 C 288.230 232.293,287.762 231.244,287.370 230.167 C 286.978 229.089,286.183 227.150,285.602 225.857 C 282.676 219.341,282.671 219.406,286.194 217.661 C 288.776 216.381,289.016 216.407,289.703 218.052 M281.166 221.450 C 281.338 221.719,281.861 222.997,282.329 224.290 C 282.797 225.583,283.736 228.139,284.416 229.971 C 287.163 237.372,287.150 236.648,284.557 237.795 C 282.124 238.871,282.167 238.889,281.026 236.337 C 279.245 232.356,275.808 224.007,275.808 223.661 C 275.808 222.618,280.641 220.623,281.166 221.450 M365.837 223.645 C 366.424 224.018,367.471 227.664,367.478 229.360 C 367.484 230.872,362.502 246.028,361.708 246.915 C 361.256 247.419,360.489 247.600,358.813 247.600 C 356.187 247.600,355.923 247.301,354.829 243.095 C 354.493 241.802,353.954 239.775,353.631 238.590 C 353.308 237.405,352.579 234.672,352.011 232.517 C 351.443 230.362,350.735 227.766,350.439 226.747 C 350.143 225.728,350.042 224.807,350.215 224.700 C 350.605 224.459,357.067 223.734,360.235 223.576 C 361.528 223.511,363.203 223.428,363.957 223.391 C 364.711 223.353,365.557 223.468,365.837 223.645 M347.497 228.501 C 349.223 234.695,349.926 237.226,350.246 238.394 C 352.093 245.140,352.542 246.715,352.783 247.297 C 353.176 248.243,352.207 248.559,345.935 249.534 C 343.026 249.986,339.677 250.535,338.492 250.754 C 337.307 250.972,335.476 251.190,334.425 251.237 L 332.512 251.322 331.240 247.405 C 330.541 245.250,329.311 241.371,328.508 238.786 C 327.705 236.200,326.697 233.053,326.266 231.793 C 325.344 229.089,325.360 229.069,328.893 228.444 C 330.402 228.178,332.429 227.791,333.399 227.584 C 347.259 224.625,346.401 224.569,347.497 228.501 M322.364 231.048 C 322.717 231.951,324.606 237.809,325.995 242.311 C 326.194 242.958,326.947 245.338,327.668 247.600 C 328.388 249.863,328.913 251.890,328.833 252.106 C 328.708 252.441,324.519 253.422,317.728 254.706 C 316.758 254.889,315.260 255.195,314.398 255.386 C 308.522 256.687,306.608 257.029,306.163 256.858 C 305.622 256.651,299.708 238.920,299.584 237.135 C 299.511 236.083,299.571 236.057,306.366 234.197 C 310.137 233.166,315.073 231.804,317.336 231.171 C 319.598 230.539,321.560 230.010,321.696 229.996 C 321.831 229.982,322.132 230.455,322.364 231.048 M298.003 242.507 C 303.578 259.284,303.465 258.119,299.595 258.949 C 297.132 259.477,297.378 259.797,295.386 253.477 C 294.469 250.568,293.126 246.329,292.403 244.057 C 290.778 238.957,290.707 239.502,293.144 238.389 C 296.169 237.007,296.178 237.015,298.003 242.507 M287.866 241.038 C 288.244 241.499,289.793 246.090,292.698 255.355 C 294.172 260.059,294.042 260.450,290.939 260.621 L 289.044 260.725 287.287 255.044 C 286.321 251.920,285.173 248.217,284.736 246.817 C 283.306 242.231,283.328 242.006,285.276 241.258 C 287.394 240.445,287.381 240.446,287.866 241.038 M101.861 250.546 C 101.861 250.873,101.528 252.416,101.121 253.974 C 95.451 275.696,99.426 294.366,115.597 321.962 C 116.304 323.169,116.594 324.388,116.174 324.388 C 115.907 324.388,112.372 323.228,111.459 322.841 C 107.735 321.260,106.467 321.327,108.646 322.989 C 110.428 324.348,110.496 324.877,108.815 324.307 C 104.003 322.677,94.893 313.145,91.950 306.660 C 90.191 302.785,89.839 301.782,88.483 296.768 C 86.864 290.782,88.087 276.720,90.944 268.469 C 93.615 260.759,101.861 247.220,101.861 250.546 M359.751 252.008 C 359.887 252.401,359.118 254.620,358.572 255.413 C 358.286 255.828,357.349 254.353,357.231 253.300 C 357.124 252.349,357.274 252.096,358.080 251.870 C 359.515 251.469,359.567 251.473,359.751 252.008 M354.513 254.946 C 356.188 260.657,357.134 258.599,343.505 278.885 C 340.973 282.654,341.043 282.678,339.664 277.543 C 338.725 274.045,338.031 271.471,336.872 267.189 C 335.881 263.527,334.625 258.787,334.191 257.078 C 333.796 255.518,334.149 255.323,338.543 254.669 C 340.131 254.433,343.810 253.825,346.719 253.318 C 354.292 251.997,353.606 251.854,354.513 254.946 M330.915 258.374 C 331.210 259.452,331.624 260.950,331.837 261.704 C 332.049 262.458,333.193 266.601,334.379 270.911 C 335.565 275.220,336.816 279.716,337.158 280.901 C 337.500 282.086,337.859 283.350,337.956 283.708 C 338.214 284.668,338.080 284.706,329.416 286.173 C 325.034 286.915,320.127 287.781,318.511 288.097 C 314.929 288.798,314.923 288.793,313.800 284.623 C 312.777 280.822,312.315 279.148,311.829 277.473 C 311.626 276.773,311.306 275.627,311.119 274.927 C 310.665 273.225,308.424 265.394,307.887 263.630 C 307.216 261.429,307.517 260.761,309.310 260.477 C 310.169 260.340,311.753 260.031,312.831 259.789 C 313.908 259.547,315.671 259.180,316.748 258.973 C 317.826 258.766,321.087 258.078,323.996 257.444 C 330.504 256.026,330.264 255.994,330.915 258.374 M304.446 262.511 C 304.696 262.997,306.398 268.691,307.601 273.066 C 308.053 274.713,308.248 275.383,310.098 281.685 C 312.410 289.556,312.568 288.877,308.235 289.716 C 304.444 290.451,305.002 291.373,302.427 280.118 C 301.959 278.071,300.967 273.882,300.224 270.809 C 298.473 263.576,298.508 263.294,301.273 262.446 C 303.696 261.703,304.034 261.710,304.446 262.511 M295.893 266.993 C 296.539 269.105,296.892 270.561,298.220 276.592 C 299.018 280.216,299.241 281.204,300.247 285.569 C 301.468 290.864,301.329 291.242,298.023 291.614 C 296.902 291.740,295.148 291.998,294.126 292.186 C 291.714 292.631,291.871 293.073,291.871 285.816 C 291.871 280.045,291.368 274.313,290.323 268.181 C 289.880 265.575,290.015 265.294,291.932 264.828 C 294.648 264.169,295.105 264.419,295.893 266.993 M334.574 289.869 C 334.574 290.185,325.840 298.317,321.110 302.406 C 318.800 304.403,318.982 304.569,317.592 299.193 C 315.966 292.906,315.984 292.524,317.924 292.216 C 321.216 291.694,324.672 291.110,326.934 290.694 C 328.227 290.456,330.078 290.115,331.048 289.937 C 333.514 289.483,334.574 289.462,334.574 289.869 M312.799 293.284 C 313.139 293.415,313.418 293.754,313.418 294.039 C 313.418 294.323,314.043 296.904,314.808 299.774 C 316.440 305.907,316.411 306.131,313.720 307.985 C 308.387 311.659,308.337 311.652,307.605 307.150 C 307.377 305.749,306.837 302.489,306.404 299.905 C 305.488 294.438,305.392 294.645,309.225 293.781 C 310.777 293.432,312.077 293.123,312.113 293.096 C 312.149 293.068,312.458 293.153,312.799 293.284 M302.399 296.278 C 302.577 296.763,303.027 298.923,303.399 301.077 C 303.771 303.232,304.238 305.734,304.437 306.638 C 305.495 311.437,305.509 311.425,296.964 312.782 C 285.695 314.571,286.573 314.745,287.901 310.984 C 288.982 307.921,289.815 304.664,290.704 300.030 C 291.219 297.345,291.538 297.049,294.474 296.533 C 301.960 295.217,302.010 295.216,302.399 296.278 M302.449 315.402 C 301.520 316.040,289.165 322.037,288.777 322.037 C 288.321 322.037,288.075 321.353,287.748 319.174 L 287.480 317.387 288.794 317.148 C 300.440 315.029,303.572 314.629,302.449 315.402 M285.283 321.424 C 285.400 322.885,285.329 322.996,283.929 323.537 C 282.023 324.274,281.788 323.980,282.688 321.984 C 284.096 318.861,285.060 318.653,285.283 321.424 M118.119 329.308 C 121.720 330.223,144.481 340.862,144.546 341.660 C 144.556 341.787,142.493 342.114,139.961 342.387 C 134.384 342.988,127.579 344.316,122.821 345.731 C 120.881 346.308,118.149 347.118,116.750 347.533 C 107.826 350.174,104.978 344.749,111.736 337.983 C 113.796 335.921,113.949 335.666,112.929 335.994 C 109.582 337.067,106.789 339.478,104.069 343.642 C 101.718 347.240,96.768 347.311,96.768 343.747 C 96.768 341.049,97.701 339.181,100.575 336.126 C 103.880 332.613,103.984 332.176,101.218 333.442 C 97.571 335.111,95.056 337.477,93.353 340.842 C 92.005 343.507,91.790 343.664,90.450 342.971 C 89.035 342.240,88.867 341.913,88.867 339.891 C 88.867 331.916,105.170 326.018,118.119 329.308 " stroke="none" fill="#000000" fill-rule="evenodd"></path><path id="path1" d="M0.000 195.886 L 0.000 391.773 200.000 391.773 L 400.000 391.773 400.000 195.886 L 400.000 0.000 200.000 0.000 L 0.000 0.000 0.000 195.886 M183.355 32.122 C 184.752 32.825,186.364 33.730,186.936 34.134 C 188.451 35.203,189.226 35.083,189.226 33.780 C 189.226 29.201,194.063 30.293,198.572 35.891 C 203.633 42.175,204.456 43.019,205.969 43.485 C 211.523 45.194,217.100 47.904,221.870 51.213 C 224.558 53.077,225.021 53.275,225.633 52.820 C 226.017 52.535,227.811 51.101,229.620 49.633 C 252.396 31.152,279.961 54.728,267.156 81.737 C 264.914 86.466,261.450 90.292,256.037 94.016 C 253.912 95.478,253.914 95.450,255.577 100.668 C 256.724 104.265,258.220 109.192,258.825 111.365 C 258.931 111.744,260.371 112.925,262.026 113.988 C 266.798 117.055,270.052 120.833,272.730 126.418 C 274.705 130.536,274.637 131.087,272.171 130.930 C 270.161 130.803,269.996 131.029,270.860 132.732 C 274.346 139.605,274.936 149.337,271.890 149.727 C 270.940 149.849,270.903 149.969,270.648 153.771 C 270.174 160.844,267.920 166.048,263.142 171.107 C 260.908 173.471,260.247 173.635,259.621 171.977 C 258.965 170.239,258.549 170.539,254.455 175.696 C 249.974 181.342,250.002 180.249,254.163 187.212 C 256.048 190.367,257.679 193.127,257.786 193.346 C 258.661 195.121,266.601 208.031,266.818 208.031 C 266.972 208.031,267.197 207.723,267.318 207.346 C 278.332 173.139,297.380 152.289,322.177 147.300 C 356.376 140.420,384.721 168.046,384.721 208.258 C 384.721 217.193,383.611 226.363,381.240 237.023 C 380.262 241.420,377.949 248.641,375.718 254.261 C 364.924 281.460,340.347 310.581,316.944 323.903 C 316.190 324.333,314.427 325.340,313.026 326.143 C 299.759 333.746,287.320 337.959,269.627 340.844 C 265.357 341.540,261.171 344.567,258.853 348.636 C 255.603 354.338,252.581 355.583,238.786 356.903 C 232.955 357.461,229.672 358.110,222.919 360.039 C 208.616 364.126,206.464 364.403,202.397 362.688 C 200.164 361.746,200.025 361.734,197.886 362.307 C 194.832 363.125,192.598 362.718,189.636 360.803 C 187.680 359.539,186.891 359.256,185.328 359.256 C 180.181 359.256,176.326 355.374,176.306 350.171 L 176.298 347.942 174.633 347.735 C 173.717 347.622,171.557 347.431,169.833 347.311 C 166.627 347.089,161.557 346.494,158.102 345.936 C 156.409 345.662,155.851 345.766,153.682 346.760 C 150.488 348.222,148.886 348.551,143.389 348.867 C 133.549 349.434,125.547 350.822,118.119 353.252 C 113.545 354.749,109.421 354.749,106.760 353.252 C 104.864 352.186,104.726 352.166,102.338 352.616 C 99.409 353.169,97.173 352.696,94.885 351.038 C 94.086 350.459,92.640 349.871,91.672 349.732 C 82.271 348.377,79.799 340.292,86.284 332.105 C 87.484 330.589,92.872 326.738,93.793 326.738 C 94.040 326.738,94.635 326.464,95.115 326.128 L 95.987 325.517 93.279 322.444 C 80.585 308.039,76.173 288.050,81.860 270.715 C 82.037 270.176,82.410 268.942,82.689 267.973 C 82.968 267.003,83.309 266.033,83.445 265.818 C 83.582 265.602,84.202 264.192,84.823 262.684 C 87.691 255.716,92.191 249.202,98.678 242.627 C 100.840 240.436,100.985 239.905,100.125 237.330 C 97.947 230.815,98.026 221.173,100.339 211.166 C 101.827 204.727,104.642 196.172,107.034 190.818 C 108.674 187.148,108.605 186.925,104.938 184.019 C 99.390 179.622,96.309 176.384,93.416 171.912 C 91.733 169.312,90.891 168.625,90.891 169.853 C 90.891 170.187,90.611 171.002,90.268 171.664 L 89.646 172.869 87.705 170.959 C 82.734 166.068,79.546 157.957,79.533 150.171 C 79.530 148.625,79.468 148.535,78.452 148.604 L 77.375 148.678 77.248 145.544 C 77.074 141.238,77.935 137.377,80.200 132.313 C 81.383 129.668,81.325 129.534,79.209 130.009 C 76.841 130.541,76.581 129.797,78.031 126.636 C 81.262 119.596,86.422 114.372,93.034 111.448 C 94.233 110.918,95.523 109.954,96.205 109.078 C 97.470 107.454,99.582 104.911,99.920 104.603 C 101.204 103.436,101.922 101.740,105.899 90.485 L 107.496 85.966 105.444 83.288 C 92.389 66.256,101.552 41.164,120.834 41.140 C 126.493 41.134,130.434 42.757,134.773 46.882 L 137.727 49.690 141.998 47.274 C 147.110 44.382,147.335 44.031,144.222 43.806 C 137.274 43.304,141.894 39.301,151.616 37.401 C 154.931 36.753,165.201 36.617,167.799 37.187 C 168.703 37.385,170.454 37.750,171.691 37.998 C 179.076 39.477,181.496 40.945,183.516 45.168 C 185.106 48.494,185.090 48.501,179.738 46.879 C 170.339 44.031,163.469 43.969,154.992 46.656 C 151.898 47.636,152.031 47.871,156.179 48.752 C 161.668 49.918,166.076 51.707,169.517 54.166 C 172.238 56.111,172.065 56.472,168.551 56.181 C 165.611 55.937,161.633 56.351,158.543 57.221 C 156.480 57.802,157.005 58.310,162.247 60.803 C 169.089 64.056,167.775 64.483,155.962 62.842 C 146.866 61.579,146.440 60.142,153.771 55.453 C 156.694 53.583,156.575 53.446,151.518 52.889 C 145.866 52.266,144.945 52.516,139.581 56.136 C 125.724 65.487,116.898 78.051,109.111 99.510 C 106.649 106.296,106.104 107.462,104.674 109.007 C 104.128 109.597,103.756 110.144,103.848 110.223 C 103.940 110.301,105.270 111.017,106.802 111.814 C 108.335 112.611,110.098 113.808,110.720 114.474 L 111.851 115.685 110.872 115.422 C 101.071 112.798,92.177 115.727,86.431 123.471 C 85.024 125.368,85.428 125.503,89.771 124.586 C 94.897 123.504,95.830 123.826,92.605 125.563 C 89.764 127.093,86.773 131.553,85.173 136.646 C 84.383 139.165,84.718 139.683,86.043 137.990 C 87.891 135.629,88.157 136.514,86.637 139.961 C 84.196 145.493,84.607 153.437,87.653 159.588 C 88.821 161.947,88.834 161.932,89.509 157.449 C 89.992 154.241,90.487 152.042,91.507 148.580 C 92.128 146.470,92.468 147.609,93.058 153.771 C 93.892 162.487,97.115 168.547,104.790 175.830 C 109.874 180.654,119.100 186.622,120.314 185.872 C 120.631 185.676,120.573 185.484,120.120 185.230 C 119.765 185.031,119.576 184.703,119.701 184.502 C 119.826 184.300,122.105 185.280,124.766 186.680 C 129.996 189.432,132.131 190.053,129.362 188.017 C 126.396 185.836,127.560 185.352,130.930 187.365 C 132.762 188.459,137.056 190.549,139.667 191.618 C 141.358 192.310,145.027 193.204,145.252 192.979 C 145.383 192.848,144.745 191.663,143.836 190.345 C 141.626 187.142,141.871 186.953,145.353 189.177 C 156.781 196.475,165.973 197.890,177.677 194.152 C 181.503 192.931,181.609 192.926,180.509 194.025 L 179.628 194.907 182.370 195.030 C 183.879 195.098,187.052 194.968,189.422 194.741 C 191.792 194.514,194.637 194.436,195.744 194.569 C 199.514 195.020,207.816 192.629,215.774 188.800 C 218.422 187.526,220.672 186.484,220.774 186.484 C 221.292 186.484,220.829 187.412,219.744 188.544 C 214.818 193.691,236.062 184.163,243.095 178.072 C 253.399 169.147,256.549 163.318,256.966 152.400 C 257.264 144.611,259.207 147.812,260.949 158.962 C 261.544 162.774,261.683 162.849,263.032 160.093 C 266.141 153.738,266.394 145.480,263.655 139.766 C 262.686 137.743,263.273 137.619,264.996 139.481 C 266.506 141.113,267.462 141.527,267.008 140.353 C 266.862 139.976,266.648 139.138,266.533 138.492 C 265.979 135.389,262.815 129.910,259.995 127.170 L 257.214 124.468 259.165 124.757 C 260.238 124.916,262.080 125.382,263.258 125.794 C 265.852 126.701,265.622 126.705,265.622 125.751 C 265.622 124.645,260.451 119.594,257.613 117.928 C 252.567 114.966,247.904 114.188,241.313 115.211 C 237.301 115.833,236.887 115.601,239.276 114.068 C 242.236 112.169,245.019 111.231,248.573 110.936 C 252.387 110.620,252.441 110.497,250.928 105.538 C 249.162 99.750,245.919 93.542,242.157 88.749 C 237.125 82.339,236.334 77.498,239.037 69.648 C 242.654 59.141,252.893 53.796,258.517 59.478 C 261.141 62.129,262.655 67.015,260.210 64.942 C 259.504 64.344,257.397 63.341,255.885 62.884 C 254.815 62.560,251.729 63.329,251.112 64.072 C 250.798 64.451,251.029 65.060,252.024 66.472 C 255.218 71.005,254.991 78.527,251.488 84.220 C 250.176 86.352,250.122 86.582,250.930 86.582 C 252.129 86.582,251.461 87.322,249.657 87.992 C 246.315 89.234,245.854 89.834,248.425 89.596 C 260.420 88.485,268.349 70.594,262.314 58.259 C 254.896 43.096,229.613 49.111,229.583 66.046 C 229.577 69.270,229.297 69.351,227.573 66.623 C 223.505 60.189,210.757 50.539,206.326 50.539 C 205.997 50.539,205.618 50.362,205.485 50.147 C 205.352 49.931,204.638 49.755,203.900 49.755 C 202.736 49.755,202.481 49.573,201.986 48.388 C 200.399 44.589,194.392 37.003,193.608 37.806 C 193.358 38.062,193.679 39.963,194.534 43.291 C 196.390 50.511,196.380 50.552,193.438 47.740 C 192.091 46.453,188.062 43.301,184.485 40.736 C 176.042 34.680,174.104 32.553,175.612 30.991 C 176.478 30.095,180.486 30.680,183.355 32.122 M115.573 47.641 C 107.350 50.620,103.247 60.662,105.969 71.144 C 106.830 74.460,109.790 79.530,110.865 79.530 C 111.628 79.530,112.327 76.659,111.952 75.057 C 110.922 70.644,112.296 64.152,115.063 60.366 L 115.754 59.420 114.012 59.699 C 112.108 60.003,110.058 61.358,109.012 63.004 C 107.515 65.357,107.168 65.043,107.745 61.859 C 109.453 52.437,117.255 50.570,122.155 58.410 C 123.948 61.278,124.087 61.276,127.276 58.311 C 131.139 54.722,131.204 54.237,128.273 50.977 C 125.258 47.624,119.671 46.156,115.573 47.641 M140.666 77.977 C 141.877 78.839,142.997 80.611,142.997 81.665 C 142.997 82.332,142.576 82.451,141.998 81.949 C 140.366 80.530,134.207 80.358,131.524 81.657 C 129.743 82.519,129.427 82.323,130.198 80.840 C 132.110 77.164,137.467 75.699,140.666 77.977 M205.644 77.755 C 207.151 78.545,209.084 80.702,209.780 82.370 C 210.472 84.031,210.119 84.240,208.484 83.140 C 204.769 80.640,201.264 80.140,197.084 81.512 C 194.251 82.442,194.044 82.375,194.864 80.788 C 195.634 79.299,197.606 77.637,198.953 77.341 C 199.529 77.214,200.176 77.043,200.392 76.961 C 201.111 76.686,204.615 77.215,205.644 77.755 M136.481 93.256 C 145.223 96.527,149.253 113.680,143.155 121.669 C 141.549 123.772,141.488 124.288,142.865 124.122 C 144.521 123.922,144.335 124.737,142.513 125.663 C 130.324 131.859,126.920 135.772,125.585 145.118 C 125.069 148.729,124.551 149.216,123.883 146.718 C 122.177 140.342,125.798 133.089,133.577 127.298 L 134.931 126.290 131.529 125.614 C 125.535 124.424,119.486 122.205,121.432 121.911 C 121.962 121.831,123.081 121.971,123.919 122.222 C 125.914 122.820,125.975 122.699,125.024 120.010 C 122.587 113.122,124.152 106.319,129.358 101.161 C 131.874 98.669,131.823 98.140,129.174 99.260 C 124.726 101.140,120.666 108.772,120.666 115.252 C 120.666 121.378,119.108 118.271,118.959 111.848 L 118.850 107.150 116.580 105.975 C 113.911 104.593,113.771 104.062,116.032 103.892 C 119.578 103.625,120.484 102.146,118.556 99.772 C 115.822 96.405,116.336 94.516,119.480 96.370 C 122.131 97.933,122.721 97.871,125.108 95.781 C 128.741 92.599,132.497 91.766,136.481 93.256 M208.526 93.241 C 209.677 93.671,211.745 94.817,213.123 95.787 C 216.061 97.856,217.211 97.986,219.700 96.528 C 222.453 94.914,222.790 97.401,220.183 100.091 C 218.153 102.186,218.903 103.370,222.857 104.309 C 225.664 104.976,225.309 105.657,221.576 106.763 L 220.038 107.219 220.135 111.711 C 220.242 116.686,219.648 119.034,217.606 121.711 C 216.564 123.078,216.701 123.768,218.022 123.797 C 218.543 123.808,216.688 124.766,215.464 125.116 C 208.070 127.237,200.926 127.676,195.331 126.352 C 191.486 125.443,190.227 124.500,193.037 124.635 C 195.639 124.759,195.825 124.539,194.648 122.731 C 189.855 115.369,191.836 106.226,199.576 99.985 C 201.021 98.820,200.705 98.571,198.579 99.199 C 194.848 100.303,189.800 107.039,188.071 113.222 C 186.433 119.080,185.775 119.411,185.735 114.398 C 185.616 99.878,197.294 89.038,208.526 93.241 M135.855 102.545 C 134.424 103.433,133.569 105.590,134.075 107.040 C 135.018 109.744,138.122 110.513,140.213 108.560 C 143.491 105.498,139.647 100.194,135.855 102.545 M205.054 103.193 C 202.809 105.438,203.349 109.267,206.111 110.696 C 208.408 111.884,211.432 111.050,212.530 108.926 C 215.017 104.116,208.856 99.391,205.054 103.193 M162.898 118.068 C 163.239 118.409,163.422 118.785,163.304 118.903 C 162.989 119.218,155.534 118.244,155.534 117.888 C 155.534 116.957,161.944 117.114,162.898 118.068 M160.595 120.709 C 167.354 121.850,173.126 126.679,173.155 131.218 C 173.197 137.824,159.012 145.818,152.595 142.803 C 146.661 140.015,142.214 135.063,142.214 131.244 C 142.214 126.066,149.477 120.795,157.265 120.320 C 157.678 120.295,159.177 120.470,160.595 120.709 M152.791 125.807 C 148.398 127.134,149.050 129.831,154.047 131.008 C 161.164 132.684,168.252 128.942,162.684 126.449 C 160.535 125.487,155.034 125.130,152.791 125.807 M192.707 128.257 C 201.288 131.743,206.244 139.625,204.322 146.728 C 203.526 149.668,202.938 150.013,202.938 147.540 C 202.938 140.465,195.723 131.503,187.139 127.917 C 186.400 127.608,185.701 127.109,185.585 126.808 C 185.304 126.076,189.382 126.905,192.707 128.257 M134.747 134.601 C 134.058 135.431,132.811 135.308,132.811 134.411 C 132.811 133.498,133.541 133.180,134.501 133.675 C 135.066 133.966,135.117 134.156,134.747 134.601 M190.727 136.239 C 191.166 137.093,190.903 137.904,190.187 137.904 C 189.542 137.904,188.868 136.734,189.116 136.043 C 189.372 135.329,190.318 135.444,190.727 136.239 M135.735 137.750 C 136.416 138.431,135.947 139.471,134.960 139.471 C 134.245 139.471,133.893 138.292,134.419 137.658 C 134.976 136.988,134.973 136.988,135.735 137.750 M187.259 138.874 C 187.655 139.350,187.558 139.534,186.709 139.921 C 185.524 140.461,184.656 139.932,185.048 138.910 C 185.346 138.135,186.628 138.114,187.259 138.874 M141.364 142.358 C 141.565 143.402,140.926 143.875,140.114 143.282 C 139.674 142.960,139.524 142.532,139.695 142.086 C 140.031 141.210,141.179 141.397,141.364 142.358 M133.153 142.350 C 133.487 142.752,133.418 143.036,132.866 143.535 C 132.016 144.304,130.964 143.508,131.384 142.414 C 131.666 141.679,132.570 141.647,133.153 142.350 M177.072 142.981 C 177.404 143.601,177.331 143.829,176.689 144.173 C 175.801 144.648,175.236 143.897,175.656 142.801 C 175.968 141.988,176.583 142.066,177.072 142.981 M190.989 143.198 C 190.989 143.707,190.684 144.020,190.108 144.102 C 189.234 144.226,188.829 143.133,189.501 142.461 C 190.021 141.941,190.989 142.421,190.989 143.198 M183.279 144.078 C 183.373 144.738,183.208 144.956,182.616 144.956 C 181.679 144.956,181.234 144.363,181.551 143.537 C 181.886 142.664,183.133 143.054,183.279 144.078 M156.662 147.992 C 159.857 154.308,165.240 157.704,173.620 158.692 C 183.135 159.815,194.175 156.068,197.934 150.441 L 198.588 149.461 198.608 151.246 C 198.663 156.003,192.643 160.869,184.790 162.416 C 180.369 163.286,179.628 163.984,178.117 168.694 C 174.131 181.130,169.108 184.956,161.188 181.590 C 158.606 180.493,158.584 180.491,156.540 181.135 C 148.988 183.515,143.402 177.919,140.397 164.963 C 139.586 161.465,139.336 161.125,137.080 160.455 C 132.345 159.049,128.561 155.502,127.298 151.284 C 126.580 148.888,127.044 148.904,129.539 151.360 C 137.631 159.323,149.781 157.692,154.272 148.039 C 155.558 145.275,155.290 145.281,156.662 147.992 M325.955 156.507 C 309.990 159.233,297.251 168.955,286.165 186.876 C 282.244 193.215,277.433 204.062,275.739 210.382 C 275.537 211.136,275.217 212.282,275.028 212.929 C 273.460 218.283,273.591 220.825,275.205 216.331 C 287.105 183.183,302.935 165.058,324.491 159.898 C 326.866 159.330,337.299 159.316,339.426 159.878 C 340.313 160.112,342.008 160.578,343.193 160.912 C 362.978 166.491,376.107 192.080,372.220 217.489 C 371.978 219.075,371.584 221.694,371.346 223.310 C 366.852 253.826,346.949 285.858,319.099 307.397 C 305.675 317.779,295.618 323.099,281.015 327.545 C 275.399 329.255,276.011 330.629,281.692 329.067 C 325.350 317.060,363.830 274.926,372.908 229.187 C 373.143 228.002,373.512 226.151,373.728 225.073 C 381.704 185.190,357.918 151.051,325.955 156.507 M156.709 160.313 C 156.709 164.864,156.354 164.911,155.345 160.496 C 154.407 156.393,154.927 156.392,146.216 160.512 C 143.909 161.603,144.261 165.462,147.234 171.655 C 149.952 177.318,155.762 178.696,157.512 174.092 C 157.986 172.846,158.523 172.923,159.257 174.341 C 160.926 177.569,166.401 178.641,168.750 176.200 C 172.100 172.717,174.385 164.046,172.086 163.538 C 165.965 162.185,162.569 160.705,159.423 158.020 C 156.736 155.726,156.709 155.748,156.709 160.313 M326.369 162.755 C 325.996 163.204,326.395 164.290,328.378 168.227 C 331.059 173.548,331.225 173.683,334.026 172.809 C 334.650 172.614,337.504 171.965,340.366 171.365 C 344.235 170.555,345.520 170.141,345.371 169.754 C 344.147 166.564,341.156 163.094,339.252 162.654 C 336.276 161.968,326.962 162.040,326.369 162.755 M318.158 164.774 C 313.437 166.542,305.810 171.150,305.358 172.507 C 305.227 172.900,305.343 173.781,305.616 174.466 C 306.787 177.401,308.312 180.553,308.667 180.772 C 308.991 180.972,314.818 179.056,320.637 176.836 C 321.483 176.513,323.246 175.887,324.554 175.444 C 328.579 174.081,328.641 174.979,323.902 166.014 C 322.509 163.378,322.113 163.292,318.158 164.774 M346.327 165.689 C 346.327 167.658,350.160 170.205,352.039 169.484 C 352.603 169.268,352.382 168.071,351.778 168.071 C 351.589 168.071,350.471 167.453,349.292 166.699 C 347.115 165.307,346.327 165.038,346.327 165.689 M351.910 171.988 C 350.756 172.468,350.352 171.221,354.804 180.936 C 355.529 182.517,356.121 183.871,356.121 183.945 C 356.121 184.018,356.631 185.193,357.254 186.554 C 357.877 187.916,358.833 190.020,359.379 191.230 C 360.541 193.804,360.779 193.929,364.479 193.922 C 368.355 193.913,368.442 193.821,367.463 190.769 C 363.691 179.002,356.350 170.139,351.910 171.988 M342.409 173.542 C 341.871 173.716,339.579 174.250,337.316 174.729 C 335.054 175.207,332.992 175.714,332.734 175.855 C 332.299 176.091,332.707 177.351,335.351 183.937 C 339.227 193.594,340.235 195.886,340.601 195.883 C 342.103 195.873,356.537 193.959,356.926 193.718 C 357.199 193.550,356.392 191.069,355.147 188.247 C 354.862 187.600,354.303 186.286,353.906 185.325 C 352.872 182.827,349.787 176.784,348.548 174.829 C 347.430 173.065,345.281 172.614,342.409 173.542 M299.258 178.159 C 294.739 183.446,290.975 188.728,291.323 189.291 C 291.546 189.651,305.574 182.547,305.579 182.072 C 305.581 181.908,305.247 181.027,304.837 180.113 C 304.427 179.200,303.776 177.703,303.390 176.787 C 302.458 174.571,302.271 174.633,299.258 178.159 M320.274 179.869 C 316.611 181.164,312.777 182.504,311.753 182.846 C 309.542 183.586,309.492 183.866,310.910 187.557 C 312.145 190.773,313.774 195.107,315.182 198.923 C 315.758 200.485,316.434 201.766,316.685 201.770 C 318.940 201.806,336.533 196.788,336.533 196.109 C 336.533 195.226,330.496 179.672,329.643 178.355 C 328.803 177.059,327.727 177.233,320.274 179.869 M298.114 189.334 C 284.829 196.277,284.904 196.186,287.200 202.547 C 287.861 204.378,288.652 206.600,288.957 207.485 C 290.229 211.167,290.670 211.933,291.381 211.689 C 291.758 211.560,296.311 209.802,301.499 207.784 C 306.687 205.765,311.111 204.114,311.331 204.114 C 311.550 204.114,312.037 203.774,312.413 203.358 C 313.150 202.544,313.102 202.167,311.843 198.825 C 311.437 197.747,310.470 195.103,309.694 192.948 C 307.429 186.662,306.807 185.304,306.202 185.318 C 305.969 185.324,302.330 187.131,298.114 189.334 M238.786 188.867 C 233.634 192.553,222.457 198.237,220.358 198.237 C 219.683 198.237,220.447 197.354,221.939 196.412 C 224.429 194.838,224.112 193.993,221.510 195.269 C 210.278 200.773,193.596 206.152,186.592 206.528 C 184.791 206.624,183.969 206.236,185.155 205.849 C 185.562 205.715,186.778 205.282,187.855 204.885 C 188.932 204.488,191.665 203.517,193.928 202.727 C 201.131 200.214,200.287 199.967,190.010 201.583 C 184.493 202.450,172.704 202.632,171.931 201.861 C 171.593 201.524,169.963 201.369,166.719 201.363 C 159.874 201.351,149.078 199.916,140.493 197.877 C 135.428 196.674,135.668 197.157,142.041 200.980 C 147.748 204.405,149.518 205.681,148.561 205.681 C 148.296 205.681,147.773 205.513,147.399 205.307 C 147.025 205.102,145.573 204.547,144.172 204.075 C 140.526 202.844,134.703 199.984,130.950 197.582 C 127.818 195.576,126.627 195.509,128.697 197.453 C 132.847 201.352,125.248 197.874,117.783 192.459 C 114.684 190.211,114.759 190.156,112.618 196.224 C 112.113 197.654,111.143 200.323,110.462 202.155 C 109.086 205.853,106.351 214.133,105.803 216.259 C 105.608 217.013,105.252 218.377,105.012 219.289 C 104.370 221.728,104.088 229.415,104.542 232.125 C 106.083 241.348,111.350 248.667,119.454 252.850 C 122.062 254.197,123.065 254.559,122.885 254.092 C 122.567 253.262,119.159 248.468,118.675 248.168 C 118.081 247.801,118.270 246.817,118.934 246.817 C 119.274 246.817,123.902 250.078,129.218 254.064 C 139.263 261.595,140.456 262.224,141.668 260.627 C 142.467 259.575,142.327 255.769,141.399 253.289 C 139.566 248.389,142.314 251.155,145.307 257.222 C 147.489 261.647,149.483 262.167,151.766 258.908 C 152.903 257.285,152.427 249.848,151.101 248.522 C 150.738 248.159,150.758 246.817,151.126 246.818 C 151.814 246.819,154.810 251.963,155.290 253.967 C 155.715 255.739,156.604 255.277,156.899 253.130 C 158.419 242.078,142.077 222.182,127.428 217.248 C 124.408 216.230,124.682 215.762,128.583 215.276 C 132.319 214.810,136.381 216.209,142.489 220.065 C 144.754 221.495,145.348 221.638,145.348 220.752 C 145.348 219.835,143.876 215.669,143.003 214.115 C 141.294 211.072,143.797 213.499,145.819 216.846 C 147.140 219.031,148.529 222.517,149.036 224.917 C 149.154 225.477,150.243 227.146,151.456 228.626 C 162.780 242.441,165.314 257.994,156.978 262.519 C 155.954 263.075,154.461 264.166,153.660 264.944 C 151.709 266.840,150.446 267.248,146.726 267.188 C 144.998 267.159,142.333 267.255,140.804 267.399 C 137.390 267.722,136.510 267.333,132.818 263.865 C 130.165 261.374,128.204 260.529,125.074 260.529 C 121.540 260.529,115.238 257.566,110.461 253.657 C 106.859 250.711,107.005 250.596,105.442 257.591 C 102.150 272.325,103.091 284.781,108.569 298.986 C 114.382 314.060,129.874 329.323,143.596 333.497 C 144.021 333.626,145.602 334.173,147.111 334.712 C 154.729 337.435,163.620 339.033,173.869 339.522 C 180.080 339.819,180.751 339.713,182.370 338.182 C 185.060 335.639,188.303 334.301,195.458 332.786 C 200.898 331.633,200.548 332.078,198.730 328.637 C 188.014 308.357,190.164 288.113,205.086 268.799 C 206.275 267.261,207.248 265.916,207.248 265.812 C 207.248 265.707,205.505 265.622,203.376 265.622 L 199.503 265.622 197.009 267.301 C 192.643 270.241,190.843 270.563,186.643 269.158 C 185.370 268.732,183.946 268.379,183.477 268.374 C 179.246 268.326,173.608 264.180,171.385 259.480 C 167.752 251.802,172.335 239.768,183.114 228.679 C 185.657 226.063,186.567 224.836,186.893 223.586 C 188.094 218.986,194.122 210.445,195.321 211.645 C 195.423 211.747,194.345 214.059,192.927 216.785 C 190.145 222.129,190.165 222.209,193.732 219.979 C 199.324 216.482,205.182 215.223,211.699 216.116 C 213.930 216.422,214.130 217.297,212.047 217.642 C 211.239 217.775,210.137 218.023,209.598 218.192 C 209.060 218.362,207.914 218.724,207.052 218.998 C 194.572 222.962,179.342 237.763,175.518 249.646 C 174.360 253.243,174.841 253.629,176.920 250.771 C 179.552 247.155,182.077 245.768,179.810 249.185 C 176.428 254.280,176.989 261.117,180.789 261.117 C 182.231 261.117,182.445 260.964,183.811 258.962 C 187.154 254.060,188.174 252.750,189.290 251.925 C 190.945 250.701,191.131 251.232,189.732 253.184 C 187.774 255.913,186.587 260.110,187.267 261.898 C 188.313 264.650,189.637 264.640,194.331 261.845 C 198.721 259.230,199.041 259.045,205.003 255.654 C 210.813 252.350,211.443 252.414,208.624 256.024 C 205.438 260.101,205.433 260.095,210.971 258.981 C 229.183 255.317,242.042 239.865,242.119 221.548 C 242.130 219.105,242.729 217.908,243.090 219.609 C 243.225 220.244,243.546 221.557,243.803 222.527 C 245.225 227.889,244.091 238.580,241.489 244.351 C 240.926 245.599,240.221 247.185,239.922 247.875 L 239.379 249.128 245.414 248.893 C 253.332 248.583,258.016 249.282,263.157 251.538 C 265.929 252.755,266.216 253.554,263.745 253.173 C 255.665 251.929,243.493 253.300,234.280 256.492 C 202.040 267.664,188.416 304.002,207.106 328.967 C 209.782 332.542,210.689 333.166,214.300 333.917 C 217.312 334.543,221.323 335.809,230.950 339.172 C 235.938 340.915,240.801 342.358,243.873 343.007 C 246.599 343.583,243.611 344.078,238.633 343.875 C 234.171 343.693,233.256 343.522,229.187 342.112 C 214.142 336.897,213.646 336.782,206.268 336.782 C 191.673 336.782,179.094 344.150,182.578 350.658 C 183.927 353.180,185.968 352.873,187.336 349.943 C 189.022 346.332,195.363 341.234,198.168 341.234 C 198.965 341.234,198.670 341.863,197.608 342.432 C 196.191 343.190,193.017 346.740,192.182 348.501 C 188.884 355.450,196.036 359.157,199.877 352.491 C 201.617 349.470,204.096 346.796,206.639 345.196 C 209.680 343.282,210.226 343.651,207.882 346.033 C 204.047 349.931,202.735 354.411,204.818 356.495 C 206.773 358.449,208.641 358.200,219.001 354.602 C 223.132 353.167,226.542 352.313,231.734 351.412 C 232.811 351.225,236.853 350.527,240.715 349.862 C 254.034 347.568,258.221 343.448,260.926 329.979 C 261.575 326.748,262.096 327.224,262.096 331.048 C 262.096 335.047,262.419 335.156,265.394 332.162 C 279.034 318.439,285.782 290.816,280.931 268.560 C 280.743 267.698,280.462 266.376,280.306 265.622 C 279.023 259.416,274.214 244.925,271.186 238.141 C 270.767 237.203,269.762 234.936,268.953 233.105 C 267.443 229.690,260.289 215.199,259.765 214.496 C 259.605 214.280,258.541 212.341,257.401 210.186 C 254.435 204.580,252.622 201.235,252.303 200.784 C 252.151 200.568,251.178 198.805,250.141 196.866 C 247.270 191.497,243.925 185.969,243.487 185.870 C 243.271 185.822,241.156 187.170,238.786 188.867 M362.163 197.625 C 362.302 198.365,362.738 199.996,363.131 201.248 C 364.071 204.244,365.641 209.466,366.702 213.124 C 367.171 214.740,367.715 216.468,367.911 216.963 C 368.106 217.458,368.266 218.207,368.266 218.628 C 368.266 220.017,369.392 219.468,369.679 217.939 C 370.062 215.898,369.496 197.896,369.022 197.009 C 368.687 196.383,368.148 196.278,365.271 196.278 L 361.911 196.278 362.163 197.625 M352.987 197.072 C 347.939 197.649,342.216 198.665,341.828 199.053 C 341.448 199.433,347.183 217.187,348.573 219.936 L 349.145 221.067 352.144 220.818 C 353.793 220.681,357.478 220.454,360.333 220.312 C 366.251 220.020,366.003 220.236,364.783 216.421 C 357.615 193.990,359.071 196.377,352.987 197.072 M335.357 200.172 C 334.819 200.340,333.497 200.684,332.419 200.934 C 330.299 201.428,324.606 202.958,320.372 204.172 C 318.904 204.593,317.728 205.150,317.728 205.425 C 317.728 206.167,324.009 224.627,324.399 225.033 C 324.700 225.344,331.399 224.311,335.357 223.342 C 336.112 223.157,338.555 222.685,340.788 222.293 C 345.803 221.412,345.656 222.045,342.797 213.672 C 341.481 209.815,339.960 205.338,339.419 203.722 C 338.164 199.976,337.590 199.474,335.357 200.172 M282.890 204.318 C 282.445 205.507,281.639 207.353,281.099 208.418 C 279.758 211.065,280.009 213.994,281.762 216.147 C 282.274 216.776,287.402 214.243,287.734 213.198 C 288.049 212.205,284.521 202.155,283.857 202.155 C 283.771 202.155,283.336 203.128,282.890 204.318 M302.860 210.342 C 296.945 212.671,292.038 214.777,291.956 215.022 C 291.875 215.268,292.601 217.718,293.570 220.467 C 294.540 223.216,295.854 226.964,296.490 228.795 C 298.003 233.147,296.773 233.067,309.109 229.616 C 319.278 226.772,320.524 226.371,320.710 225.878 C 320.933 225.286,314.476 206.345,314.006 206.216 C 313.790 206.156,308.775 208.013,302.860 210.342 M278.097 217.218 C 277.845 217.769,277.752 218.333,277.890 218.471 C 278.231 218.812,279.334 217.852,279.334 217.213 C 279.334 216.220,278.550 216.223,278.097 217.218 M286.194 217.661 C 282.671 219.406,282.676 219.341,285.602 225.857 C 286.183 227.150,286.978 229.089,287.370 230.167 C 287.762 231.244,288.230 232.293,288.410 232.498 C 288.589 232.702,288.737 233.105,288.737 233.393 C 288.737 233.681,289.011 234.335,289.347 234.848 L 289.958 235.780 292.316 234.984 C 295.166 234.022,295.293 233.755,294.284 230.868 C 288.575 214.531,289.491 216.026,286.194 217.661 M277.865 222.147 C 276.734 222.796,275.808 223.477,275.808 223.661 C 275.808 224.007,279.245 232.356,281.026 236.337 C 282.167 238.889,282.124 238.871,284.557 237.795 C 287.150 236.648,287.163 237.372,284.416 229.971 C 283.736 228.139,282.797 225.583,282.329 224.290 C 280.914 220.383,280.928 220.390,277.865 222.147 M360.235 223.576 C 357.067 223.734,350.605 224.459,350.215 224.700 C 350.042 224.807,350.143 225.728,350.439 226.747 C 350.735 227.766,351.443 230.362,352.011 232.517 C 352.579 234.672,353.308 237.405,353.631 238.590 C 353.954 239.775,354.493 241.802,354.829 243.095 C 355.923 247.301,356.187 247.600,358.813 247.600 C 361.872 247.600,361.872 247.600,364.902 238.371 C 367.671 229.939,367.771 229.326,366.909 226.088 C 366.264 223.661,365.863 223.296,363.957 223.391 C 363.203 223.428,361.528 223.511,360.235 223.576 M339.863 226.269 C 337.277 226.785,334.368 227.377,333.399 227.584 C 332.429 227.791,330.402 228.178,328.893 228.444 C 325.360 229.069,325.344 229.089,326.266 231.793 C 326.697 233.053,327.705 236.200,328.508 238.786 C 329.311 241.371,330.541 245.250,331.240 247.405 L 332.512 251.322 334.425 251.237 C 335.476 251.190,337.307 250.972,338.492 250.754 C 339.677 250.535,343.026 249.986,345.935 249.534 C 352.207 248.559,353.176 248.243,352.783 247.297 C 352.542 246.715,352.093 245.140,350.246 238.394 C 349.926 237.226,349.223 234.695,347.497 228.501 C 346.436 224.696,346.965 224.851,339.863 226.269 M317.336 231.171 C 315.073 231.804,310.137 233.166,306.366 234.197 C 299.571 236.057,299.511 236.083,299.584 237.135 C 299.708 238.920,305.622 256.651,306.163 256.858 C 306.608 257.029,308.522 256.687,314.398 255.386 C 315.260 255.195,316.758 254.889,317.728 254.706 C 324.519 253.422,328.708 252.441,328.833 252.106 C 328.913 251.890,328.388 249.863,327.668 247.600 C 326.947 245.338,326.194 242.958,325.995 242.311 C 323.060 232.800,322.068 229.958,321.696 229.996 C 321.560 230.010,319.598 230.539,317.336 231.171 M293.144 238.389 C 290.707 239.502,290.778 238.957,292.403 244.057 C 293.126 246.329,294.469 250.568,295.386 253.477 C 297.378 259.797,297.132 259.477,299.595 258.949 C 303.134 258.190,303.107 258.296,301.254 252.490 C 295.973 235.946,296.497 236.858,293.144 238.389 M285.276 241.258 C 283.328 242.006,283.306 242.231,284.736 246.817 C 285.173 248.217,286.321 251.920,287.287 255.044 L 289.044 260.725 290.939 260.621 C 294.042 260.450,294.172 260.059,292.698 255.355 C 288.638 242.408,287.929 240.494,287.219 240.577 C 287.084 240.593,286.210 240.899,285.276 241.258 M99.088 253.000 C 93.975 260.074,90.785 267.228,88.871 275.913 C 87.795 280.798,87.561 293.361,88.483 296.768 C 89.839 301.782,90.191 302.785,91.950 306.660 C 94.893 313.145,104.003 322.677,108.815 324.307 C 110.496 324.877,110.428 324.348,108.646 322.989 C 106.467 321.327,107.735 321.260,111.459 322.841 C 112.372 323.228,115.907 324.388,116.174 324.388 C 116.594 324.388,116.304 323.169,115.597 321.962 C 99.426 294.366,95.451 275.696,101.121 253.974 C 102.432 248.952,102.121 248.804,99.088 253.000 M358.080 251.870 C 357.274 252.096,357.124 252.349,357.231 253.300 C 357.349 254.353,358.286 255.828,358.572 255.413 C 359.118 254.620,359.887 252.401,359.751 252.008 C 359.567 251.473,359.515 251.469,358.080 251.870 M346.719 253.318 C 343.810 253.825,340.131 254.433,338.543 254.669 C 334.149 255.323,333.796 255.518,334.191 257.078 C 334.625 258.787,335.881 263.527,336.872 267.189 C 338.031 271.471,338.725 274.045,339.664 277.543 C 341.043 282.678,340.973 282.654,343.505 278.885 C 357.134 258.599,356.188 260.657,354.513 254.946 C 353.606 251.854,354.292 251.997,346.719 253.318 M323.996 257.444 C 321.087 258.078,317.826 258.766,316.748 258.973 C 315.671 259.180,313.908 259.547,312.831 259.789 C 311.753 260.031,310.169 260.340,309.310 260.477 C 307.517 260.761,307.216 261.429,307.887 263.630 C 308.424 265.394,310.665 273.225,311.119 274.927 C 311.306 275.627,311.626 276.773,311.829 277.473 C 312.315 279.148,312.777 280.822,313.800 284.623 C 314.923 288.793,314.929 288.798,318.511 288.097 C 320.127 287.781,325.034 286.915,329.416 286.173 C 338.080 284.706,338.214 284.668,337.956 283.708 C 337.859 283.350,337.500 282.086,337.158 280.901 C 336.816 279.716,335.565 275.220,334.379 270.911 C 333.193 266.601,332.049 262.458,331.837 261.704 C 331.624 260.950,331.210 259.452,330.915 258.374 C 330.264 255.994,330.504 256.026,323.996 257.444 M301.273 262.446 C 298.508 263.294,298.473 263.576,300.224 270.809 C 300.967 273.882,301.959 278.071,302.427 280.118 C 305.002 291.373,304.444 290.451,308.235 289.716 C 312.568 288.877,312.410 289.556,310.098 281.685 C 308.248 275.383,308.053 274.713,307.601 273.066 C 304.241 260.843,304.590 261.429,301.273 262.446 M291.932 264.828 C 290.015 265.294,289.880 265.575,290.323 268.181 C 291.368 274.313,291.871 280.045,291.871 285.816 C 291.871 293.073,291.714 292.631,294.126 292.186 C 295.148 291.998,296.902 291.740,298.023 291.614 C 301.329 291.242,301.468 290.864,300.247 285.569 C 299.241 281.204,299.018 280.216,298.220 276.592 C 295.428 263.911,295.461 263.972,291.932 264.828 M331.048 289.937 C 330.078 290.115,328.227 290.456,326.934 290.694 C 324.672 291.110,321.216 291.694,317.924 292.216 C 316.484 292.445,316.361 292.561,316.407 293.637 C 316.464 294.961,318.596 303.448,318.964 303.815 C 319.242 304.093,320.890 302.697,328.795 295.488 C 335.748 289.148,335.781 289.065,331.048 289.937 M309.225 293.781 C 305.392 294.645,305.488 294.438,306.404 299.905 C 306.837 302.489,307.377 305.749,307.605 307.150 C 308.337 311.652,308.387 311.659,313.720 307.985 C 316.411 306.131,316.440 305.907,314.808 299.774 C 314.043 296.904,313.418 294.323,313.418 294.039 C 313.418 293.627,312.391 292.886,312.113 293.096 C 312.077 293.123,310.777 293.432,309.225 293.781 M298.727 295.812 C 291.081 297.052,291.297 296.939,290.704 300.030 C 289.815 304.664,288.982 307.921,287.901 310.984 C 286.573 314.745,285.695 314.571,296.964 312.782 C 305.509 311.425,305.495 311.437,304.437 306.638 C 304.238 305.734,303.771 303.232,303.399 301.077 C 302.331 294.891,302.592 295.185,298.727 295.812 M295.397 315.980 C 292.488 316.491,289.516 317.016,288.794 317.148 L 287.480 317.387 287.748 319.174 C 288.284 322.747,287.633 322.768,295.494 318.922 C 304.781 314.377,304.780 314.333,295.397 315.980 M283.978 319.800 C 283.206 320.572,281.900 323.559,282.202 323.861 C 283.095 324.753,285.403 322.927,285.283 321.424 C 285.133 319.565,284.723 319.055,283.978 319.800 M104.016 328.902 C 93.429 331.236,86.326 337.484,89.121 342.005 C 90.393 344.064,91.937 343.640,93.353 340.842 C 95.056 337.477,97.571 335.111,101.218 333.442 C 103.984 332.176,103.880 332.613,100.575 336.126 C 95.486 341.536,95.415 346.540,100.432 346.248 C 102.432 346.132,102.451 346.118,104.069 343.642 C 106.789 339.478,109.582 337.067,112.929 335.994 C 113.949 335.666,113.796 335.921,111.736 337.983 C 104.978 344.749,107.826 350.174,116.750 347.533 C 118.149 347.118,120.881 346.308,122.821 345.731 C 127.579 344.316,134.384 342.988,139.961 342.387 C 142.493 342.114,144.556 341.787,144.546 341.660 C 144.481 340.862,121.720 330.223,118.119 329.308 C 113.654 328.174,108.053 328.012,104.016 328.902 " stroke="none" fill="none" ></path></g></svg>